<?xml version="1.0" encoding="UTF-8"?>
<!--Generator: Apple Native CoreSVG 129-->
<!DOCTYPE svg
PUBLIC "-//W3C//DTD SVG 1.1//EN"
       "http://www.w3.org/Graphics/SVG/1.1/DTD/svg11.dtd">
<svg version="1.1" xmlns="http://www.w3.org/2000/svg" xmlns:xlink="http://www.w3.org/1999/xlink" width="3300" height="2200">
 <!--glyph: "uni100B99.medium", point size: 100.000000, font version: "Version 16.0d9e1", template writer version: "8"-->
 <g id="Notes">
  <rect height="2200" id="artboard" style="fill:white;opacity:1" width="3300" x="0" y="0"/>
  <line id="" style="fill:none;stroke:black;opacity:1;stroke-width:0.5;" x1="263" x2="3036" y1="292" y2="292"/>
  <text style="stroke:none;fill:black;font-family:-apple-system,&quot;SF Pro Display&quot;,&quot;SF Pro Text&quot;,Helvetica,sans-serif;font-weight:bold;" transform="matrix(1 0 0 1 263 322)">Weight/Scale Variations</text>
  <text style="stroke:none;fill:black;font-family:-apple-system,&quot;SF Pro Display&quot;,&quot;SF Pro Text&quot;,Helvetica,sans-serif;text-anchor:middle;" transform="matrix(1 0 0 1 559.711 322)">Ultralight</text>
  <text style="stroke:none;fill:black;font-family:-apple-system,&quot;SF Pro Display&quot;,&quot;SF Pro Text&quot;,Helvetica,sans-serif;text-anchor:middle;" transform="matrix(1 0 0 1 856.422 322)">Thin</text>
  <text style="stroke:none;fill:black;font-family:-apple-system,&quot;SF Pro Display&quot;,&quot;SF Pro Text&quot;,Helvetica,sans-serif;text-anchor:middle;" transform="matrix(1 0 0 1 1153.13 322)">Light</text>
  <text style="stroke:none;fill:black;font-family:-apple-system,&quot;SF Pro Display&quot;,&quot;SF Pro Text&quot;,Helvetica,sans-serif;text-anchor:middle;" transform="matrix(1 0 0 1 1449.84 322)">Regular</text>
  <text style="stroke:none;fill:black;font-family:-apple-system,&quot;SF Pro Display&quot;,&quot;SF Pro Text&quot;,Helvetica,sans-serif;text-anchor:middle;" transform="matrix(1 0 0 1 1746.56 322)">Medium</text>
  <text style="stroke:none;fill:black;font-family:-apple-system,&quot;SF Pro Display&quot;,&quot;SF Pro Text&quot;,Helvetica,sans-serif;text-anchor:middle;" transform="matrix(1 0 0 1 2043.27 322)">Semibold</text>
  <text style="stroke:none;fill:black;font-family:-apple-system,&quot;SF Pro Display&quot;,&quot;SF Pro Text&quot;,Helvetica,sans-serif;text-anchor:middle;" transform="matrix(1 0 0 1 2339.98 322)">Bold</text>
  <text style="stroke:none;fill:black;font-family:-apple-system,&quot;SF Pro Display&quot;,&quot;SF Pro Text&quot;,Helvetica,sans-serif;text-anchor:middle;" transform="matrix(1 0 0 1 2636.69 322)">Heavy</text>
  <text style="stroke:none;fill:black;font-family:-apple-system,&quot;SF Pro Display&quot;,&quot;SF Pro Text&quot;,Helvetica,sans-serif;text-anchor:middle;" transform="matrix(1 0 0 1 2933.4 322)">Black</text>
  <line id="" style="fill:none;stroke:black;opacity:1;stroke-width:0.5;" x1="263" x2="3036" y1="1903" y2="1903"/>
  <g id="" transform="matrix(1 0 0 1 263 1933)">
   <path d="M 9.24805 0.830078 C 13.5547 0.830078 17.1387 -2.74414 17.1387 -7.05078 C 17.1387 -11.3574 13.5449 -14.9316 9.23828 -14.9316 C 4.94141 -14.9316 1.36719 -11.3574 1.36719 -7.05078 C 1.36719 -2.74414 4.95117 0.830078 9.24805 0.830078 Z M 9.24805 -0.654297 C 5.70312 -0.654297 2.87109 -3.49609 2.87109 -7.05078 C 2.87109 -10.6055 5.69336 -13.4473 9.23828 -13.4473 C 12.793 -13.4473 15.6348 -10.6055 15.6445 -7.05078 C 15.6543 -3.49609 12.8027 -0.654297 9.24805 -0.654297 Z M 9.22852 -3.62305 C 9.69727 -3.62305 9.9707 -3.93555 9.9707 -4.45312 L 9.9707 -6.31836 L 12.002 -6.31836 C 12.5 -6.31836 12.832 -6.57227 12.832 -7.04102 C 12.832 -7.51953 12.5195 -7.7832 12.002 -7.7832 L 9.9707 -7.7832 L 9.9707 -9.81445 C 9.9707 -10.332 9.69727 -10.6543 9.22852 -10.6543 C 8.75977 -10.6543 8.50586 -10.3125 8.50586 -9.81445 L 8.50586 -7.7832 L 6.49414 -7.7832 C 5.97656 -7.7832 5.64453 -7.51953 5.64453 -7.04102 C 5.64453 -6.57227 5.99609 -6.31836 6.49414 -6.31836 L 8.50586 -6.31836 L 8.50586 -4.45312 C 8.50586 -3.95508 8.75977 -3.62305 9.22852 -3.62305 Z"/>
  </g>
  <g id="" transform="matrix(1 0 0 1 281.506 1933)">
   <path d="M 11.709 2.91016 C 17.1582 2.91016 21.6699 -1.61133 21.6699 -7.05078 C 21.6699 -12.5 17.1484 -17.0117 11.6992 -17.0117 C 6.25977 -17.0117 1.74805 -12.5 1.74805 -7.05078 C 1.74805 -1.61133 6.26953 2.91016 11.709 2.91016 Z M 11.709 1.25 C 7.09961 1.25 3.41797 -2.44141 3.41797 -7.05078 C 3.41797 -11.6602 7.08984 -15.3516 11.6992 -15.3516 C 16.3086 -15.3516 20 -11.6602 20.0098 -7.05078 C 20.0195 -2.44141 16.3184 1.25 11.709 1.25 Z M 11.6797 -2.66602 C 12.207 -2.66602 12.5098 -3.01758 12.5098 -3.59375 L 12.5098 -6.23047 L 15.3223 -6.23047 C 15.8691 -6.23047 16.25 -6.51367 16.25 -7.03125 C 16.25 -7.55859 15.8887 -7.86133 15.3223 -7.86133 L 12.5098 -7.86133 L 12.5098 -10.6836 C 12.5098 -11.25 12.207 -11.6113 11.6797 -11.6113 C 11.1621 -11.6113 10.8789 -11.2305 10.8789 -10.6836 L 10.8789 -7.86133 L 8.07617 -7.86133 C 7.50977 -7.86133 7.13867 -7.55859 7.13867 -7.03125 C 7.13867 -6.51367 7.5293 -6.23047 8.07617 -6.23047 L 10.8789 -6.23047 L 10.8789 -3.59375 C 10.8789 -3.03711 11.1621 -2.66602 11.6797 -2.66602 Z"/>
  </g>
  <g id="" transform="matrix(1 0 0 1 304.924 1933)">
   <path d="M 14.9707 5.66406 C 21.9336 5.66406 27.6953 -0.0976562 27.6953 -7.05078 C 27.6953 -14.0137 21.9238 -19.7754 14.9609 -19.7754 C 8.00781 -19.7754 2.25586 -14.0137 2.25586 -7.05078 C 2.25586 -0.0976562 8.01758 5.66406 14.9707 5.66406 Z M 14.9707 3.84766 C 8.93555 3.84766 4.08203 -1.01562 4.08203 -7.05078 C 4.08203 -13.0957 8.92578 -17.9492 14.9609 -17.9492 C 21.0059 -17.9492 25.8594 -13.0957 25.8691 -7.05078 C 25.8789 -1.01562 21.0156 3.84766 14.9707 3.84766 Z M 14.9414 -1.38672 C 15.5176 -1.38672 15.8594 -1.77734 15.8594 -2.38281 L 15.8594 -6.13281 L 19.7754 -6.13281 C 20.3711 -6.13281 20.7812 -6.46484 20.7812 -7.02148 C 20.7812 -7.59766 20.3906 -7.93945 19.7754 -7.93945 L 15.8594 -7.93945 L 15.8594 -11.8652 C 15.8594 -12.4805 15.5176 -12.8711 14.9414 -12.8711 C 14.375 -12.8711 14.0527 -12.4609 14.0527 -11.8652 L 14.0527 -7.93945 L 10.1465 -7.93945 C 9.53125 -7.93945 9.13086 -7.59766 9.13086 -7.02148 C 9.13086 -6.46484 9.55078 -6.13281 10.1465 -6.13281 L 14.0527 -6.13281 L 14.0527 -2.38281 C 14.0527 -1.79688 14.375 -1.38672 14.9414 -1.38672 Z"/>
  </g>
  <text style="stroke:none;fill:black;font-family:-apple-system,&quot;SF Pro Display&quot;,&quot;SF Pro Text&quot;,Helvetica,sans-serif;font-weight:bold;" transform="matrix(1 0 0 1 263 1953)">Design Variations</text>
  <text style="stroke:none;fill:black;font-family:-apple-system,&quot;SF Pro Display&quot;,&quot;SF Pro Text&quot;,Helvetica,sans-serif;" transform="matrix(1 0 0 1 263 1971)">Symbols are supported in up to nine weights and three scales.</text>
  <text style="stroke:none;fill:black;font-family:-apple-system,&quot;SF Pro Display&quot;,&quot;SF Pro Text&quot;,Helvetica,sans-serif;" transform="matrix(1 0 0 1 263 1989)">For optimal layout with text and other symbols, vertically align</text>
  <text style="stroke:none;fill:black;font-family:-apple-system,&quot;SF Pro Display&quot;,&quot;SF Pro Text&quot;,Helvetica,sans-serif;" transform="matrix(1 0 0 1 263 2007)">symbols with the adjacent text.</text>
  <line id="" style="fill:none;stroke:#00AEEF;stroke-width:0.5;opacity:1.0;" x1="776" x2="776" y1="1919" y2="1933"/>
  <g id="" transform="matrix(1 0 0 1 776 1933)">
   <path d="M 3.31055 0.126953 C 3.82812 0.126953 4.08203 -0.0683594 4.26758 -0.605469 L 5.52734 -4.0625 L 11.2891 -4.0625 L 12.5488 -0.605469 C 12.7344 -0.0683594 12.9883 0.126953 13.4961 0.126953 C 14.0137 0.126953 14.3457 -0.185547 14.3457 -0.673828 C 14.3457 -0.839844 14.3164 -0.986328 14.2383 -1.20117 L 9.6582 -13.3887 C 9.43359 -13.9941 9.0332 -14.2871 8.4082 -14.2871 C 7.80273 -14.2871 7.39258 -13.9941 7.17773 -13.3984 L 2.59766 -1.19141 C 2.51953 -0.976562 2.49023 -0.830078 2.49023 -0.664062 C 2.49023 -0.175781 2.80273 0.126953 3.31055 0.126953 Z M 6.00586 -5.53711 L 8.37891 -12.1094 L 8.42773 -12.1094 L 10.8008 -5.53711 Z"/>
  </g>
  <line id="" style="fill:none;stroke:#00AEEF;stroke-width:0.5;opacity:1.0;" x1="792.836" x2="792.836" y1="1919" y2="1933"/>
  <text style="stroke:none;fill:black;font-family:-apple-system,&quot;SF Pro Display&quot;,&quot;SF Pro Text&quot;,Helvetica,sans-serif;font-weight:bold;" transform="matrix(1 0 0 1 776 1953)">Margins</text>
  <text style="stroke:none;fill:black;font-family:-apple-system,&quot;SF Pro Display&quot;,&quot;SF Pro Text&quot;,Helvetica,sans-serif;" transform="matrix(1 0 0 1 776 1971)">Leading and trailing margins on the left and right side of each symbol</text>
  <text style="stroke:none;fill:black;font-family:-apple-system,&quot;SF Pro Display&quot;,&quot;SF Pro Text&quot;,Helvetica,sans-serif;" transform="matrix(1 0 0 1 776 1989)">can be adjusted by modifying the x-location of the margin guidelines.</text>
  <text style="stroke:none;fill:black;font-family:-apple-system,&quot;SF Pro Display&quot;,&quot;SF Pro Text&quot;,Helvetica,sans-serif;" transform="matrix(1 0 0 1 776 2007)">Modifications are automatically applied proportionally to all</text>
  <text style="stroke:none;fill:black;font-family:-apple-system,&quot;SF Pro Display&quot;,&quot;SF Pro Text&quot;,Helvetica,sans-serif;" transform="matrix(1 0 0 1 776 2025)">scales and weights.</text>
  <g id="" transform="matrix(1 0 0 1 1289 1933)">
   <path d="M 2.8418 1.86523 L 4.54102 3.57422 C 5.40039 4.44336 6.38672 4.38477 7.31445 3.35938 L 17.4902 -7.85156 C 17.7539 -7.76367 18.0273 -7.7832 18.3398 -7.8418 L 19.4043 -8.03711 L 20.0684 -7.36328 L 20.0293 -6.80664 C 19.9902 -6.30859 20.1172 -5.92773 20.6055 -5.44922 L 21.3672 -4.70703 C 21.8457 -4.22852 22.4609 -4.19922 22.9297 -4.66797 L 25.8398 -7.58789 C 26.3086 -8.05664 26.2891 -8.65234 25.8105 -9.13086 L 25.0391 -9.89258 C 24.5605 -10.3711 24.1895 -10.5273 23.7109 -10.4883 L 23.1348 -10.4395 L 22.4902 -11.0742 L 22.7344 -12.1973 C 22.8613 -12.7637 22.7051 -13.2031 22.1191 -13.7891 L 19.9219 -15.9766 C 16.582 -19.2969 12.1484 -19.2188 9.25781 -16.3281 C 8.83789 -15.918 8.80859 -15.3418 9.04297 -14.9512 C 9.27734 -14.5898 9.73633 -14.3555 10.3809 -14.5215 C 11.8457 -14.8633 13.3691 -14.9219 14.7949 -13.9844 L 14.209 -12.5293 C 14.0137 -12.0508 13.9844 -11.6504 14.1113 -11.2891 L 3.04688 -0.898438 C 2.06055 0.0195312 1.98242 0.996094 2.8418 1.86523 Z M 10.752 -15.957 C 13.1836 -17.7344 16.4746 -17.4316 18.7012 -15.2051 L 21.1328 -12.793 C 21.3672 -12.5586 21.4062 -12.373 21.3379 -12.0312 L 21.0156 -10.5469 L 22.5195 -9.0625 L 23.5059 -9.12109 C 23.7598 -9.13086 23.8379 -9.11133 24.0332 -8.91602 L 24.6094 -8.33984 L 22.168 -5.89844 L 21.5918 -6.47461 C 21.3965 -6.66992 21.3672 -6.74805 21.377 -7.01172 L 21.4453 -7.98828 L 19.9512 -9.47266 L 18.4277 -9.21875 C 18.1055 -9.15039 17.959 -9.17969 17.7148 -9.41406 L 15.7129 -11.416 C 15.459 -11.6504 15.4297 -11.8164 15.5859 -12.1875 L 16.4648 -14.2773 C 14.9023 -15.7324 12.8711 -16.3574 10.8398 -15.7617 C 10.6836 -15.7227 10.625 -15.8496 10.752 -15.957 Z M 5.27344 2.30469 L 4.10156 1.14258 C 3.63281 0.683594 3.74023 0.341797 4.14062 -0.0195312 L 14.9512 -10.1953 L 16.416 -8.71094 L 6.42578 2.27539 C 6.07422 2.67578 5.74219 2.77344 5.27344 2.30469 Z"/>
  </g>
  <text style="stroke:none;fill:black;font-family:-apple-system,&quot;SF Pro Display&quot;,&quot;SF Pro Text&quot;,Helvetica,sans-serif;font-weight:bold;" transform="matrix(1 0 0 1 1289 1953)">Exporting</text>
  <text style="stroke:none;fill:black;font-family:-apple-system,&quot;SF Pro Display&quot;,&quot;SF Pro Text&quot;,Helvetica,sans-serif;" transform="matrix(1 0 0 1 1289 1971)">Symbols should be outlined when exporting to ensure the</text>
  <text style="stroke:none;fill:black;font-family:-apple-system,&quot;SF Pro Display&quot;,&quot;SF Pro Text&quot;,Helvetica,sans-serif;" transform="matrix(1 0 0 1 1289 1989)">design is preserved when submitting to Xcode.</text>
  <text id="template-version" style="stroke:none;fill:black;font-family:-apple-system,&quot;SF Pro Display&quot;,&quot;SF Pro Text&quot;,Helvetica,sans-serif;text-anchor:end;" transform="matrix(1 0 0 1 3036 1933)">Template v.2.0</text>
  <text style="stroke:none;fill:black;font-family:-apple-system,&quot;SF Pro Display&quot;,&quot;SF Pro Text&quot;,Helvetica,sans-serif;text-anchor:end;" transform="matrix(1 0 0 1 3036 1951)">Requires Xcode 12 or greater</text>
  <text style="stroke:none;fill:black;font-family:-apple-system,&quot;SF Pro Display&quot;,&quot;SF Pro Text&quot;,Helvetica,sans-serif;text-anchor:end;" transform="matrix(1 0 0 1 3036 1969)">Generated from translate</text>
  <text style="stroke:none;fill:black;font-family:-apple-system,&quot;SF Pro Display&quot;,&quot;SF Pro Text&quot;,Helvetica,sans-serif;text-anchor:end;" transform="matrix(1 0 0 1 3036 1987)">Typeset at 100 points</text>
  <text style="stroke:none;fill:black;font-family:-apple-system,&quot;SF Pro Display&quot;,&quot;SF Pro Text&quot;,Helvetica,sans-serif;" transform="matrix(1 0 0 1 263 726)">Small</text>
  <text style="stroke:none;fill:black;font-family:-apple-system,&quot;SF Pro Display&quot;,&quot;SF Pro Text&quot;,Helvetica,sans-serif;" transform="matrix(1 0 0 1 263 1156)">Medium</text>
  <text style="stroke:none;fill:black;font-family:-apple-system,&quot;SF Pro Display&quot;,&quot;SF Pro Text&quot;,Helvetica,sans-serif;" transform="matrix(1 0 0 1 263 1586)">Large</text>
 </g>
 <g id="Guides">
  <g id="H-reference" style="fill:#27AAE1;stroke:none;" transform="matrix(1 0 0 1 339 696)">
   <path d="M 0.976562 0 L 3.66211 0 L 12.9883 -24.4629 L 45.7031 -24.4629 L 55.0781 0 L 57.7148 0 L 30.6152 -70.459 L 28.125 -70.459 Z M 29.2969 -67.1387 L 29.3945 -67.1387 L 44.873 -26.709 L 13.8672 -26.709 Z"/>
  </g>
  <line id="Baseline-S" style="fill:none;stroke:#27AAE1;opacity:1;stroke-width:0.5;" x1="263" x2="3036" y1="696" y2="696"/>
  <line id="Capline-S" style="fill:none;stroke:#27AAE1;opacity:1;stroke-width:0.5;" x1="263" x2="3036" y1="625.541" y2="625.541"/>
  <g id="H-reference" style="fill:#27AAE1;stroke:none;" transform="matrix(1 0 0 1 339 1126)">
   <path d="M 0.976562 0 L 3.66211 0 L 12.9883 -24.4629 L 45.7031 -24.4629 L 55.0781 0 L 57.7148 0 L 30.6152 -70.459 L 28.125 -70.459 Z M 29.2969 -67.1387 L 29.3945 -67.1387 L 44.873 -26.709 L 13.8672 -26.709 Z"/>
  </g>
  <line id="Baseline-M" style="fill:none;stroke:#27AAE1;opacity:1;stroke-width:0.5;" x1="263" x2="3036" y1="1126" y2="1126"/>
  <line id="Capline-M" style="fill:none;stroke:#27AAE1;opacity:1;stroke-width:0.5;" x1="263" x2="3036" y1="1055.54" y2="1055.54"/>
  <g id="H-reference" style="fill:#27AAE1;stroke:none;" transform="matrix(1 0 0 1 339 1556)">
   <path d="M 0.976562 0 L 3.66211 0 L 12.9883 -24.4629 L 45.7031 -24.4629 L 55.0781 0 L 57.7148 0 L 30.6152 -70.459 L 28.125 -70.459 Z M 29.2969 -67.1387 L 29.3945 -67.1387 L 44.873 -26.709 L 13.8672 -26.709 Z"/>
  </g>
  <line id="Baseline-L" style="fill:none;stroke:#27AAE1;opacity:1;stroke-width:0.5;" x1="263" x2="3036" y1="1556" y2="1556"/>
  <line id="Capline-L" style="fill:none;stroke:#27AAE1;opacity:1;stroke-width:0.5;" x1="263" x2="3036" y1="1485.54" y2="1485.54"/>
  <line id="left-margin" style="fill:none;stroke:#00AEEF;stroke-width:0.5;opacity:1.0;" x1="1361.2" x2="1361.2" y1="1030.79" y2="1150.12"/>
  <line id="right-margin" style="fill:none;stroke:#00AEEF;stroke-width:0.5;opacity:1.0;" x1="1538.49" x2="1538.49" y1="1030.79" y2="1150.12"/>
 </g>
 <g id="Symbols">
  <g id="Black-L" transform="matrix(1 0 0 1 2810.35 1556)">
   <path d="M 188.086 47.3145 C 195.41 47.3145 200.146 42.041 200.146 34.082 L 200.146 21.7773 L 202.295 21.7773 C 218.896 21.7773 230.029 11.3281 230.029 -5.0293 L 230.029 -46.7285 C 230.029 -64.1113 218.115 -75.293 200.391 -75.293 L 144.043 -75.293 L 144.043 -77.002 C 144.043 -94.3848 132.373 -105.566 114.404 -105.566 L 45.7031 -105.566 C 27.9785 -105.566 16.0645 -94.3848 16.0645 -77.002 L 16.0645 -35.3027 C 16.0645 -18.9453 27.2461 -8.49609 43.8477 -8.49609 L 47.1191 -8.49609 L 47.1191 3.80859 C 47.1191 11.7676 51.8555 17.041 59.1797 17.041 C 63.6719 17.041 69.4336 14.1602 74.8047 9.52148 L 95.8008 -8.49609 L 103.223 -8.49609 L 103.223 -5.0293 C 103.223 11.3281 114.893 21.7773 132.861 21.7773 L 151.465 21.7773 L 172.461 39.7949 C 177.832 44.4336 183.594 47.3145 188.086 47.3145 Z M 64.0137 -19.9219 C 64.0137 -24.5117 61.0352 -27.3438 56.6895 -27.3438 L 49.3652 -27.3438 C 41.1133 -27.3438 35.7422 -32.4707 35.7422 -40.8203 L 35.7422 -73.2422 C 35.7422 -81.543 41.1133 -86.7188 49.3652 -86.7188 L 110.742 -86.7188 C 118.604 -86.7188 123.877 -82.0312 124.365 -74.3652 C 111.328 -71.3379 103.223 -61.1816 103.223 -46.7285 L 103.223 -27.3438 L 95.5566 -27.3438 C 91.0645 -27.3438 86.3281 -25.1465 82.5684 -21.582 L 64.0137 -4.05273 Z M 56.3477 -42.334 C 54.9316 -38.0859 56.543 -31.8848 63.2324 -31.8848 C 67.2363 -31.8848 69.6289 -34.1797 70.6543 -38.7207 L 71.582 -41.5527 L 84.8633 -41.5527 L 85.791 -38.7207 C 86.8164 -34.1797 89.209 -31.8848 93.2129 -31.8848 C 99.9512 -31.8848 101.465 -38.1348 100.098 -42.334 L 90.4297 -71.1914 C 88.3301 -77.6855 84.3262 -80.8105 78.0762 -80.8105 C 71.9727 -80.8105 68.1152 -77.7832 66.0156 -71.1914 Z M 74.2188 -52.4902 L 78.0273 -67.5781 L 78.418 -67.5781 L 82.2266 -52.4902 Z M 166.455 -43.6523 C 163.477 -42.334 160.107 -43.6035 158.594 -46.7285 L 156.445 -51.3672 C 154.98 -54.4434 156.152 -57.9102 159.18 -59.375 C 162.109 -60.9863 165.576 -59.7168 167.188 -56.3965 L 169.434 -51.7578 C 170.898 -48.7305 169.678 -45.2637 166.455 -43.6523 Z M 145.215 -40.1855 L 188.184 -40.1855 C 191.699 -40.1855 194.287 -37.7441 194.287 -34.4727 C 194.287 -31.2012 191.65 -28.6133 188.184 -28.6133 L 183.984 -28.6133 C 182.275 -22.8027 179.395 -17.4316 175.537 -12.9395 C 179.443 -10.5469 183.936 -8.74023 189.014 -7.56836 C 192.773 -6.83594 194.678 -3.80859 193.701 -0.146484 C 192.822 3.125 189.404 4.73633 185.303 3.80859 C 178.711 2.29492 172.168 -0.683594 166.797 -4.63867 C 160.986 -0.537109 154.395 2.34375 147.363 3.90625 C 143.75 4.83398 140.479 3.07617 139.551 -0.195312 C 138.818 -3.56445 140.918 -6.83594 144.336 -7.56836 C 149.707 -8.93555 154.199 -10.7422 157.812 -12.9395 C 154.004 -17.5781 151.123 -22.998 149.365 -28.6133 L 145.215 -28.6133 C 141.748 -28.6133 139.062 -31.2012 139.062 -34.4727 C 139.062 -37.7441 141.65 -40.1855 145.215 -40.1855 Z M 171.729 -28.6133 L 161.67 -28.6133 C 162.939 -25.6836 164.648 -22.9004 166.797 -20.3125 C 168.848 -22.9492 170.508 -25.7324 171.729 -28.6133 Z"/>
  </g>
  <g id="Heavy-L" transform="matrix(1 0 0 1 2516.3 1556)">
   <path d="M 184.814 45.4102 C 191.26 45.4102 195.361 40.7715 195.361 33.7402 L 195.361 20.8008 L 197.754 20.8008 C 213.916 20.8008 224.707 10.6934 224.707 -5.37109 L 224.707 -46.3379 C 224.707 -63.2324 213.33 -73.8281 196.338 -73.8281 L 139.99 -73.8281 L 139.99 -77.0508 C 139.99 -93.9453 128.955 -104.541 111.621 -104.541 L 44.4336 -104.541 C 27.4414 -104.541 16.0645 -93.9453 16.0645 -77.0508 L 16.0645 -36.084 C 16.0645 -19.9707 26.8555 -9.91211 43.0176 -9.91211 L 46.2891 -9.91211 L 46.2891 3.07617 C 46.2891 10.0586 50.3906 14.6973 56.8848 14.6973 C 60.9375 14.6973 65.7227 12.1582 70.5566 8.00781 L 91.4551 -9.91211 L 101.66 -9.91211 L 101.66 -5.37109 C 101.66 10.7422 112.695 20.8008 130.029 20.8008 L 150.195 20.8008 L 171.094 38.7207 C 175.928 42.8711 180.762 45.4102 184.814 45.4102 Z M 61.084 -19.5312 C 61.084 -23.7793 58.3984 -26.2207 54.541 -26.2207 L 47.3633 -26.2207 C 38.6719 -26.2207 33.1055 -31.4453 33.1055 -40.3809 L 33.1055 -74.0723 C 33.1055 -82.959 38.623 -88.2324 47.3633 -88.2324 L 108.691 -88.2324 C 117.432 -88.2324 122.949 -82.959 122.949 -74.0723 L 122.949 -73.1934 C 109.766 -70.6543 101.66 -60.791 101.66 -46.3379 L 101.66 -26.2207 L 91.3574 -26.2207 C 87.2559 -26.2207 83.3008 -24.4141 79.8828 -21.1914 L 61.084 -3.71094 Z M 54.8828 -41.2109 C 53.5645 -37.3047 55.127 -31.9336 60.9863 -31.9336 C 64.502 -31.9336 66.6016 -33.8867 67.5781 -37.8906 L 69.2871 -42.8711 L 83.9844 -42.8711 L 85.7422 -37.8906 C 86.6699 -33.8867 88.8184 -31.9336 92.334 -31.9336 C 98.2422 -31.9336 99.6582 -37.3535 98.3887 -41.2109 L 87.2559 -73.2422 C 85.4492 -78.8574 81.9336 -81.543 76.5137 -81.543 C 71.2402 -81.543 67.8223 -78.9062 66.0156 -73.2422 Z M 71.8262 -52.7344 L 76.4648 -69.2871 L 76.8066 -69.2871 L 81.4941 -52.7344 Z M 163.184 -43.457 C 160.449 -42.2852 157.324 -43.457 155.957 -46.2891 L 153.76 -50.9766 C 152.441 -53.8086 153.516 -56.9824 156.25 -58.3008 C 158.984 -59.8145 162.158 -58.5938 163.623 -55.6152 L 165.918 -50.8789 C 167.236 -48.1445 166.113 -44.9219 163.184 -43.457 Z M 142.236 -39.5996 L 184.521 -39.5996 C 187.744 -39.5996 190.137 -37.3535 190.137 -34.375 C 190.137 -31.3477 187.695 -29.0039 184.521 -29.0039 L 180.176 -29.0039 C 178.467 -23.0469 175.488 -17.5781 171.484 -12.9883 C 175.537 -10.4492 180.127 -8.54492 185.352 -7.37305 C 188.77 -6.68945 190.527 -3.90625 189.6 -0.585938 C 188.818 2.49023 185.645 3.90625 181.836 3.02734 C 175.342 1.51367 168.896 -1.41602 163.477 -5.46875 C 157.715 -1.31836 151.172 1.5625 144.287 3.125 C 140.918 3.95508 137.891 2.44141 137.061 -0.634766 C 136.377 -3.71094 138.281 -6.68945 141.406 -7.37305 C 146.875 -8.74023 151.465 -10.5957 155.322 -12.9883 C 151.318 -17.7246 148.34 -23.2422 146.582 -29.0039 L 142.236 -29.0039 C 139.062 -29.0039 136.621 -31.3477 136.621 -34.375 C 136.621 -37.3535 139.014 -39.5996 142.236 -39.5996 Z M 168.994 -29.0039 L 157.812 -29.0039 C 159.131 -25.6836 161.035 -22.5586 163.477 -19.7266 C 165.869 -22.6074 167.725 -25.7324 168.994 -29.0039 Z"/>
  </g>
  <g id="Bold-L" transform="matrix(1 0 0 1 2222.57 1556)">
   <path d="M 181.104 43.3105 C 186.621 43.3105 189.99 39.3555 189.99 33.3984 L 189.99 19.6777 L 192.676 19.6777 C 208.398 19.6777 218.75 10.0586 218.75 -5.76172 L 218.75 -45.8984 C 218.75 -62.2559 208.008 -72.2168 191.748 -72.2168 L 135.449 -72.2168 L 135.449 -77.0996 C 135.449 -93.457 125.146 -103.418 108.496 -103.418 L 43.0176 -103.418 C 26.8066 -103.418 16.0645 -93.457 16.0645 -77.0996 L 16.0645 -36.9629 C 16.0645 -21.1426 26.416 -11.5234 42.0898 -11.5234 L 45.3613 -11.5234 L 45.3613 2.19727 C 45.3613 8.20312 48.7793 12.1094 54.2969 12.1094 C 57.8125 12.1094 61.5723 9.96094 65.8691 6.29883 L 86.6699 -11.5234 L 99.9023 -11.5234 L 99.9023 -5.76172 C 99.9023 10.0586 110.254 19.6777 126.904 19.6777 L 148.73 19.6777 L 169.531 37.5 C 173.779 41.1621 177.539 43.3105 181.104 43.3105 Z M 57.8613 -19.0918 C 57.8613 -22.9004 55.4199 -25 52.0996 -25 L 45.166 -25 C 35.8887 -25 30.2246 -30.3223 30.2246 -39.8926 L 30.2246 -75 C 30.2246 -84.5703 35.8887 -89.9414 45.166 -89.9414 L 106.348 -89.9414 C 115.625 -89.9414 121.338 -84.5703 121.338 -75 L 121.338 -71.8262 C 107.959 -69.8242 99.9023 -60.3516 99.9023 -45.8984 L 99.9023 -25 L 86.7188 -25 C 82.959 -25 79.9316 -23.584 76.9043 -20.8008 L 57.8613 -3.32031 Z M 53.2715 -39.8926 C 52.0508 -36.377 53.5645 -31.9336 58.4473 -31.9336 C 61.4258 -31.9336 63.2324 -33.5938 64.1113 -36.9629 L 66.6992 -44.3848 L 83.0566 -44.3848 L 85.6445 -36.9629 C 86.5234 -33.5938 88.3301 -31.9336 91.3086 -31.9336 C 96.3379 -31.9336 97.6562 -36.4746 96.4844 -39.8926 L 83.6914 -75.5859 C 82.1777 -80.127 79.248 -82.373 74.8047 -82.373 C 70.4102 -82.373 67.5293 -80.1758 66.0156 -75.5859 Z M 69.0918 -53.0273 L 74.7559 -71.2402 L 74.9512 -71.2402 L 80.6152 -53.0273 Z M 159.473 -43.2617 C 157.031 -42.1875 154.248 -43.2129 153.027 -45.8008 L 150.781 -50.5859 C 149.561 -53.125 150.586 -55.957 153.027 -57.1289 C 155.469 -58.4961 158.301 -57.373 159.619 -54.6875 L 161.914 -49.9023 C 163.135 -47.4609 162.158 -44.5801 159.473 -43.2617 Z M 138.916 -38.916 L 180.469 -38.916 C 183.35 -38.916 185.498 -36.9141 185.498 -34.2285 C 185.498 -31.543 183.301 -29.4922 180.469 -29.4922 L 175.879 -29.4922 C 174.17 -23.3398 171.143 -17.7734 166.895 -13.0371 C 171.143 -10.3516 175.83 -8.39844 181.299 -7.12891 C 184.326 -6.54297 185.84 -4.05273 185.059 -1.07422 C 184.326 1.75781 181.445 2.92969 177.979 2.14844 C 171.582 0.634766 165.234 -2.29492 159.814 -6.34766 C 154.053 -2.19727 147.656 0.683594 140.82 2.19727 C 137.793 3.02734 135.01 1.66016 134.229 -1.12305 C 133.643 -3.85742 135.303 -6.54297 138.086 -7.12891 C 143.75 -8.49609 148.438 -10.4492 152.49 -13.0371 C 148.291 -17.9199 145.215 -23.5352 143.506 -29.4922 L 138.916 -29.4922 C 136.084 -29.4922 133.936 -31.543 133.936 -34.2285 C 133.936 -36.9141 136.035 -38.916 138.916 -38.916 Z M 165.918 -29.4922 L 153.467 -29.4922 C 154.883 -25.7324 157.031 -22.168 159.814 -19.043 C 162.5 -22.2168 164.6 -25.7324 165.918 -29.4922 Z"/>
  </g>
  <g id="Semibold-L" transform="matrix(1 0 0 1 1927.93 1556)">
   <path d="M 178.564 41.8457 C 183.398 41.8457 186.328 38.3789 186.328 33.1055 L 186.328 18.8965 L 189.209 18.8965 C 204.59 18.8965 214.6 9.57031 214.6 -6.05469 L 214.6 -45.6055 C 214.6 -61.5723 204.346 -71.1426 188.623 -71.1426 L 132.373 -71.1426 L 132.373 -77.0996 C 132.373 -93.0664 122.51 -102.637 106.348 -102.637 L 42.0898 -102.637 C 26.3672 -102.637 16.0645 -93.0664 16.0645 -77.0996 L 16.0645 -37.5488 C 16.0645 -21.9238 26.123 -12.6465 41.4551 -12.6465 L 44.7266 -12.6465 L 44.7266 1.61133 C 44.7266 6.88477 47.6562 10.3516 52.4902 10.3516 C 55.7129 10.3516 58.7402 8.44727 62.5977 5.12695 L 83.3496 -12.6465 L 98.6816 -12.6465 L 98.6816 -6.00586 C 98.6816 9.61914 108.545 18.8965 124.707 18.8965 L 147.754 18.8965 L 168.457 36.6699 C 172.314 39.9902 175.342 41.8457 178.564 41.8457 Z M 55.6152 -18.7988 C 55.6152 -22.3145 53.418 -24.1211 50.4395 -24.1211 L 43.6523 -24.1211 C 33.9844 -24.1211 28.1738 -29.541 28.1738 -39.5996 L 28.1738 -75.6348 C 28.1738 -85.6445 33.9844 -91.1133 43.6523 -91.1133 L 104.785 -91.1133 C 114.404 -91.1133 120.215 -85.6445 120.215 -75.6348 L 120.215 -70.8496 C 106.738 -69.1895 98.6816 -60.0098 98.6816 -45.6055 L 98.6816 -24.1211 L 83.4961 -24.1211 C 80.0293 -24.1211 77.5879 -22.998 74.9023 -20.5078 L 55.6152 -3.02734 Z M 52.1484 -39.0137 C 50.9766 -35.791 52.4414 -31.9336 56.7383 -31.9336 C 59.3262 -31.9336 60.8887 -33.3984 61.7188 -36.3281 L 64.9414 -45.4102 L 82.373 -45.4102 L 85.5957 -36.3281 C 86.377 -33.3984 87.9883 -31.9336 90.625 -31.9336 C 94.9707 -31.9336 96.2402 -35.8887 95.166 -39.0137 L 81.25 -77.1973 C 79.9316 -81.0059 77.3926 -82.9102 73.584 -82.9102 C 69.8242 -82.9102 67.334 -81.0547 66.0156 -77.1973 Z M 67.2363 -53.2227 L 73.584 -72.5586 L 73.6816 -72.5586 L 80.0781 -53.2227 Z M 156.934 -43.1641 C 154.736 -42.1875 152.1 -43.1152 151.025 -45.4102 L 148.73 -50.293 C 147.607 -52.6367 148.535 -55.2246 150.781 -56.3477 C 153.076 -57.5684 155.664 -56.543 156.836 -54.1016 L 159.18 -49.2676 C 160.303 -46.9727 159.375 -44.3848 156.934 -43.1641 Z M 136.621 -38.4766 L 177.686 -38.4766 C 180.322 -38.4766 182.275 -36.6211 182.275 -34.1309 C 182.275 -31.6406 180.273 -29.7852 177.686 -29.7852 L 172.9 -29.7852 C 171.24 -23.584 168.115 -17.8711 163.77 -13.1348 C 168.115 -10.2539 172.9 -8.25195 178.516 -6.98242 C 181.299 -6.39648 182.617 -4.15039 181.885 -1.41602 C 181.25 1.2207 178.564 2.29492 175.342 1.5625 C 168.994 0 162.695 -2.83203 157.275 -6.98242 C 151.514 -2.7832 145.215 0.0976562 138.428 1.61133 C 135.596 2.34375 133.008 1.12305 132.324 -1.46484 C 131.738 -3.95508 133.252 -6.39648 135.791 -6.98242 C 141.553 -8.34961 146.338 -10.3516 150.537 -13.1348 C 146.191 -18.0176 143.115 -23.7305 141.406 -29.7852 L 136.621 -29.7852 C 134.033 -29.7852 132.031 -31.6406 132.031 -34.1309 C 132.031 -36.6211 133.984 -38.4766 136.621 -38.4766 Z M 163.818 -29.7852 L 150.488 -29.7852 C 151.953 -25.7324 154.248 -21.9238 157.275 -18.6035 C 160.205 -21.9727 162.451 -25.7812 163.818 -29.7852 Z"/>
  </g>
  <g id="Medium-L" transform="matrix(1 0 0 1 1632.76 1556)">
   <path d="M 176.611 40.7715 C 180.957 40.7715 183.545 37.6465 183.545 32.9102 L 183.545 18.3105 L 186.572 18.3105 C 201.66 18.3105 211.523 9.22852 211.523 -6.25 L 211.523 -45.3613 C 211.523 -61.0352 201.514 -70.2637 186.23 -70.2637 L 129.98 -70.2637 L 129.98 -77.1484 C 129.98 -92.8223 120.508 -102.051 104.688 -102.051 L 41.3574 -102.051 C 26.0254 -102.051 16.0645 -92.8223 16.0645 -77.1484 L 16.0645 -38.0371 C 16.0645 -22.5586 25.8789 -13.4766 41.0156 -13.4766 L 44.2383 -13.4766 L 44.2383 1.17188 C 44.2383 5.9082 46.8262 8.98438 51.1719 8.98438 C 54.1016 8.98438 56.5918 7.27539 60.1074 4.24805 L 80.8105 -13.4766 L 97.8027 -13.4766 L 97.8027 -6.20117 C 97.8027 9.27734 107.275 18.3105 123.096 18.3105 L 146.973 18.3105 L 167.627 35.9863 C 171.191 39.0625 173.682 40.7715 176.611 40.7715 Z M 53.9062 -18.5547 C 53.9062 -21.875 51.8555 -23.4863 49.1699 -23.4863 L 42.4805 -23.4863 C 32.5684 -23.4863 26.6602 -28.9551 26.6602 -39.3555 L 26.6602 -76.123 C 26.6602 -86.4746 32.5195 -91.9922 42.4805 -91.9922 L 103.564 -91.9922 C 113.477 -91.9922 119.336 -86.4746 119.336 -76.123 L 119.336 -70.1172 C 105.811 -68.75 97.8027 -59.7656 97.8027 -45.3613 L 97.8027 -23.4863 L 81.0547 -23.4863 C 77.7832 -23.4863 75.8301 -22.5586 73.3398 -20.3125 L 53.9062 -2.83203 Z M 51.2695 -38.3789 C 50.1953 -35.3027 51.6113 -31.9824 55.4199 -31.9824 C 57.7148 -31.9824 59.1309 -33.252 59.9121 -35.8398 L 63.5742 -46.1914 L 81.8848 -46.1914 L 85.5469 -35.8398 C 86.3281 -33.252 87.7441 -31.9824 90.0879 -31.9824 C 93.9941 -31.9824 95.2148 -35.4492 94.1895 -38.3789 L 79.3945 -78.3691 C 78.2227 -81.6895 75.9766 -83.3496 72.7051 -83.3496 C 69.4336 -83.3496 67.1875 -81.6895 66.0156 -78.3691 Z M 65.8203 -53.418 L 72.6562 -73.584 L 72.7539 -73.584 L 79.6387 -53.418 Z M 155.029 -43.0664 C 152.93 -42.1387 150.488 -42.9688 149.512 -45.166 L 147.168 -50.0977 C 146.143 -52.2949 146.973 -54.6875 149.121 -55.7129 C 151.221 -56.8848 153.613 -55.8594 154.736 -53.6133 L 157.129 -48.7305 C 158.154 -46.6309 157.324 -44.1895 155.029 -43.0664 Z M 134.912 -38.0859 L 175.537 -38.0859 C 178.027 -38.0859 179.834 -36.377 179.834 -34.082 C 179.834 -31.7383 177.979 -30.0293 175.537 -30.0293 L 170.654 -30.0293 C 168.994 -23.7305 165.869 -17.9688 161.377 -13.1348 C 165.82 -10.2051 170.654 -8.1543 176.367 -6.83594 C 178.955 -6.29883 180.176 -4.19922 179.492 -1.66016 C 178.857 0.830078 176.367 1.80664 173.34 1.07422 C 167.041 -0.439453 160.742 -3.27148 155.322 -7.4707 C 149.609 -3.22266 143.311 -0.390625 136.621 1.17188 C 133.936 1.85547 131.494 0.732422 130.859 -1.70898 C 130.322 -4.05273 131.689 -6.29883 134.082 -6.83594 C 139.893 -8.25195 144.775 -10.2539 149.072 -13.1348 C 144.629 -18.0664 141.455 -23.877 139.795 -30.0293 L 134.912 -30.0293 C 132.471 -30.0293 130.615 -31.7383 130.615 -34.082 C 130.615 -36.377 132.471 -38.0859 134.912 -38.0859 Z M 162.207 -30.0293 L 148.242 -30.0293 C 149.707 -25.7324 152.148 -21.7285 155.322 -18.2617 C 158.447 -21.7773 160.791 -25.7812 162.207 -30.0293 Z"/>
  </g>
  <g id="Regular-L" transform="matrix(1 0 0 1 1338.1 1556)">
   <path d="M 174.121 39.3066 C 177.783 39.3066 179.883 36.7188 179.883 32.666 L 179.883 17.5293 L 183.105 17.5293 C 197.9 17.5293 207.422 8.78906 207.422 -6.54297 L 207.422 -45.0684 C 207.422 -60.4004 197.9 -69.1895 183.105 -69.1895 L 126.904 -69.1895 L 126.904 -77.1484 C 126.904 -92.4805 117.92 -101.27 102.588 -101.27 L 40.3809 -101.27 C 25.5859 -101.27 16.0645 -92.4805 16.0645 -77.1484 L 16.0645 -38.623 C 16.0645 -23.3398 25.5859 -14.5508 40.3809 -14.5508 L 43.6035 -14.5508 L 43.6035 0.585938 C 43.6035 4.58984 45.7031 7.22656 49.3652 7.22656 C 51.9531 7.22656 53.7598 5.81055 56.8848 3.07617 L 77.5391 -14.5508 L 96.582 -14.5508 L 96.582 -6.49414 C 96.582 8.83789 105.566 17.5293 120.947 17.5293 L 145.996 17.5293 L 166.602 35.1562 C 169.727 37.8906 171.533 39.3066 174.121 39.3066 Z M 51.709 -18.2617 C 51.709 -21.2891 49.8535 -22.6562 47.5586 -22.6562 L 41.0156 -22.6562 C 30.6641 -22.6562 24.707 -28.1738 24.707 -39.0137 L 24.707 -76.7578 C 24.707 -87.5488 30.6641 -93.1641 41.0156 -93.1641 L 101.953 -93.1641 C 112.305 -93.1641 118.262 -87.5488 118.262 -76.7578 L 118.262 -69.0918 C 104.541 -68.1152 96.582 -59.4727 96.582 -45.0684 L 96.582 -22.6562 L 77.8809 -22.6562 C 74.9023 -22.6562 73.5352 -22.0215 71.2891 -20.0684 L 51.709 -2.53906 Z M 50.1953 -37.5 C 49.1211 -34.7168 50.5371 -31.9824 53.6621 -31.9824 C 55.6152 -31.9824 56.8359 -33.0078 57.5684 -35.2051 L 61.8164 -47.168 L 81.2012 -47.168 L 85.498 -35.2051 C 86.1816 -33.0078 87.4023 -31.9824 89.4043 -31.9824 C 92.6758 -31.9824 93.8477 -34.8633 92.8711 -37.5 L 76.9531 -79.9805 C 76.0254 -82.5684 74.1699 -83.8867 71.4844 -83.8867 C 68.8477 -83.8867 66.9434 -82.5684 66.0156 -79.9805 Z M 63.9648 -53.6133 L 71.4844 -74.9023 L 79.0527 -53.6133 Z M 152.539 -42.9199 C 150.635 -42.0898 148.389 -42.8711 147.51 -44.8242 L 145.166 -49.8047 C 144.189 -51.8066 144.971 -54.0039 146.875 -54.9316 C 148.877 -55.957 151.025 -55.0293 152.002 -53.0273 L 154.395 -48.0957 C 155.371 -46.1426 154.59 -43.9453 152.539 -42.9199 Z M 132.666 -37.6465 L 172.803 -37.6465 C 175 -37.6465 176.66 -36.084 176.66 -33.9844 C 176.66 -31.8848 175 -30.3223 172.803 -30.3223 L 167.725 -30.3223 C 166.064 -23.9258 162.891 -18.1152 158.301 -13.1836 C 162.842 -10.1074 167.725 -8.05664 173.584 -6.68945 C 175.928 -6.20117 177.002 -4.29688 176.416 -2.00195 C 175.83 0.341797 173.535 1.12305 170.703 0.488281 C 164.453 -1.02539 158.252 -3.85742 152.783 -8.05664 C 147.119 -3.80859 140.918 -0.976562 134.277 0.537109 C 131.787 1.17188 129.492 0.244141 128.906 -2.00195 C 128.467 -4.15039 129.688 -6.20117 131.836 -6.68945 C 137.744 -8.10547 142.725 -10.1562 147.168 -13.1836 C 142.529 -18.2129 139.355 -24.0723 137.695 -30.3223 L 132.666 -30.3223 C 130.42 -30.3223 128.76 -31.8848 128.76 -33.9844 C 128.76 -36.084 130.42 -37.6465 132.666 -37.6465 Z M 160.107 -30.3223 L 145.312 -30.3223 C 146.826 -25.7324 149.365 -21.4844 152.783 -17.8223 C 156.152 -21.5332 158.643 -25.7812 160.107 -30.3223 Z"/>
  </g>
  <g id="Light-L" transform="matrix(1 0 0 1 1044.98 1556)">
   <path d="M 170.166 36.9629 C 172.949 36.9629 174.561 35.0098 174.561 31.9824 L 174.561 16.8457 L 178.613 16.8457 C 191.992 16.8457 200.244 9.13086 200.244 -4.54102 L 200.244 -44.873 C 200.244 -58.5449 191.992 -66.3086 178.613 -66.3086 L 122.9 -66.3086 L 122.9 -77.3438 C 122.9 -91.0645 114.99 -98.8281 101.27 -98.8281 L 37.6465 -98.8281 C 24.2676 -98.8281 16.0645 -91.0645 16.0645 -77.3438 L 16.0645 -37.0605 C 16.0645 -23.3398 24.2676 -15.625 37.6465 -15.625 L 41.748 -15.625 L 41.748 -0.488281 C 41.748 2.53906 43.3594 4.49219 46.0938 4.49219 C 47.998 4.49219 49.4141 3.41797 51.6602 1.46484 L 71.6797 -15.625 L 93.4082 -15.625 L 93.4082 -4.44336 C 93.4082 9.22852 101.27 16.8457 115.039 16.8457 L 144.629 16.8457 L 164.6 33.9844 C 166.846 35.9375 168.262 36.9629 170.166 36.9629 Z M 47.9004 -18.5547 C 47.9004 -20.8008 46.5332 -21.8262 44.7266 -21.8262 L 38.3301 -21.8262 C 28.2227 -21.8262 22.6562 -27.1484 22.6562 -37.5488 L 22.6562 -76.8555 C 22.6562 -87.207 28.1738 -92.627 38.3301 -92.627 L 100.635 -92.627 C 110.742 -92.627 116.26 -87.207 116.26 -76.8555 L 116.26 -66.3086 L 115.039 -66.3086 C 101.27 -66.3086 93.4082 -58.5449 93.4082 -44.873 L 93.4082 -21.8262 L 72.0215 -21.8262 C 69.6289 -21.8262 68.5059 -21.3379 66.6504 -19.6777 L 47.9004 -3.07617 Z M 48.9258 -36.3281 C 48.1445 -34.2285 49.2188 -32.0312 51.709 -32.0312 C 53.2227 -32.0312 54.1504 -32.8613 54.7363 -34.5215 L 59.4727 -47.4609 L 79.4922 -47.4609 L 84.2285 -34.5215 C 84.8145 -32.8613 85.7422 -32.0312 87.3047 -32.0312 C 89.8926 -32.0312 90.7715 -34.375 90.0391 -36.3281 L 73.6816 -79.834 C 72.9492 -81.8359 71.5332 -82.8613 69.4824 -82.8613 C 67.4316 -82.8613 66.0156 -81.8359 65.2832 -79.834 Z M 61.2793 -52.7344 L 69.4824 -75.293 L 77.7344 -52.7344 Z M 147.607 -41.6016 C 146.143 -40.918 144.336 -41.5039 143.652 -43.0664 L 141.162 -48.2422 C 140.43 -49.8535 141.016 -51.5137 142.578 -52.2949 C 144.141 -53.0762 145.85 -52.3926 146.631 -50.7812 L 149.121 -45.6543 C 149.854 -44.1406 149.316 -42.4316 147.607 -41.6016 Z M 128.516 -35.5469 L 167.334 -35.5469 C 169.043 -35.5469 170.361 -34.2773 170.361 -32.666 C 170.361 -31.0059 169.043 -29.7852 167.334 -29.7852 L 161.914 -29.7852 C 160.352 -23.3398 157.129 -17.4316 152.295 -12.4512 C 157.031 -9.13086 161.914 -6.98242 168.018 -5.61523 C 169.873 -5.22461 170.654 -3.75977 170.215 -2.00195 C 169.775 0 167.822 0.585938 165.43 0.0488281 C 159.326 -1.46484 153.369 -4.19922 147.998 -8.44727 C 142.432 -4.15039 136.475 -1.46484 130.078 0.0976562 C 127.93 0.634766 126.025 -0.0976562 125.537 -2.00195 C 125.195 -3.66211 126.074 -5.22461 127.783 -5.61523 C 133.936 -7.03125 138.867 -9.13086 143.506 -12.4512 C 138.721 -17.5293 135.449 -23.4375 133.887 -29.7852 L 128.516 -29.7852 C 126.758 -29.7852 125.488 -31.0059 125.488 -32.666 C 125.488 -34.2773 126.758 -35.5469 128.516 -35.5469 Z M 155.957 -29.7852 L 139.844 -29.7852 C 141.357 -24.7559 144.141 -20.0195 147.998 -16.1133 C 151.709 -20.0684 154.492 -24.8047 155.957 -29.7852 Z"/>
  </g>
  <g id="Thin-L" transform="matrix(1 0 0 1 753.053 1556)">
   <path d="M 164.99 33.8867 C 166.553 33.8867 167.529 32.8125 167.529 31.0547 L 167.529 15.9668 L 172.705 15.9668 C 184.18 15.9668 190.674 9.61914 190.674 -1.95312 L 190.674 -44.5801 C 190.674 -56.1523 184.18 -62.5488 172.705 -62.5488 L 117.578 -62.5488 L 117.578 -77.5879 C 117.578 -89.1602 111.182 -95.5566 99.5117 -95.5566 L 34.082 -95.5566 C 22.5586 -95.5566 16.0645 -89.1602 16.0645 -77.5879 L 16.0645 -34.9609 C 16.0645 -23.3398 22.5586 -17.041 34.082 -17.041 L 39.2578 -17.041 L 39.2578 -1.9043 C 39.2578 -0.195312 40.2344 0.927734 41.748 0.927734 C 42.7734 0.927734 43.7012 0.292969 44.7754 -0.634766 L 63.9648 -17.041 L 89.1602 -17.041 L 89.1602 -1.80664 C 89.1602 9.76562 95.5566 15.9668 107.227 15.9668 L 142.822 15.9668 L 162.012 32.373 C 163.037 33.3008 163.965 33.8867 164.99 33.8867 Z M 42.8711 -18.9453 C 42.8711 -20.166 42.0898 -20.752 41.0156 -20.752 L 34.7656 -20.752 C 24.9512 -20.752 19.9219 -25.7324 19.9219 -35.6445 L 19.9219 -76.9531 C 19.9219 -86.7676 24.9023 -91.8457 34.7656 -91.8457 L 98.877 -91.8457 C 108.691 -91.8457 113.672 -86.7676 113.672 -76.9531 L 113.672 -62.5488 L 107.227 -62.5488 C 95.5566 -62.5488 89.1602 -56.1523 89.1602 -44.5801 L 89.1602 -20.752 L 64.2578 -20.752 C 62.6953 -20.752 61.8652 -20.459 60.498 -19.2383 L 42.8711 -3.80859 Z M 47.3145 -34.8633 C 46.8262 -33.5938 47.4121 -32.1289 49.0723 -32.1289 C 50.0488 -32.1289 50.6348 -32.6172 50.9766 -33.6426 L 56.3965 -47.8516 L 77.2461 -47.8516 L 82.6172 -33.6426 C 82.959 -32.6172 83.5449 -32.1289 84.5703 -32.1289 C 86.2793 -32.1289 86.7188 -33.7402 86.2793 -34.8633 L 69.3359 -79.6387 C 68.8477 -80.8594 68.0664 -81.4941 66.8457 -81.4941 C 65.5273 -81.4941 64.7461 -80.8594 64.2578 -79.6387 Z M 57.7148 -51.5625 L 66.7969 -75.8301 L 75.9766 -51.5625 Z M 141.162 -39.8438 C 140.186 -39.3555 139.014 -39.7461 138.525 -40.7715 L 135.938 -46.1914 C 135.449 -47.2168 135.742 -48.291 136.865 -48.8281 C 137.891 -49.3164 139.014 -48.9258 139.453 -47.8516 L 142.09 -42.4805 C 142.578 -41.5039 142.334 -40.3809 141.162 -39.8438 Z M 123.047 -32.7637 L 160.107 -32.7637 C 161.133 -32.7637 162.012 -31.9336 162.012 -30.9082 C 162.012 -29.8828 161.133 -29.0527 160.107 -29.0527 L 154.248 -29.0527 C 152.783 -22.6074 149.512 -16.6016 144.434 -11.4746 C 149.365 -7.8125 154.248 -5.61523 160.693 -4.19922 C 161.816 -3.90625 162.256 -2.97852 162.012 -2.00195 C 161.719 -0.488281 160.254 -0.0976562 158.496 -0.537109 C 152.49 -2.05078 146.924 -4.6875 141.602 -8.93555 C 136.182 -4.63867 130.615 -2.05078 124.561 -0.537109 C 122.852 -0.0976562 121.338 -0.488281 121.094 -2.00195 C 120.85 -2.97852 121.289 -3.90625 122.412 -4.19922 C 128.857 -5.66406 133.789 -7.8125 138.672 -11.4746 C 133.643 -16.6016 130.322 -22.6074 128.857 -29.0527 L 123.047 -29.0527 C 121.973 -29.0527 121.143 -29.8828 121.143 -30.9082 C 121.143 -31.9336 121.973 -32.7637 123.047 -32.7637 Z M 150.439 -29.0527 L 132.666 -29.0527 C 134.131 -23.4863 137.256 -18.1641 141.602 -13.8184 C 145.898 -18.1641 149.023 -23.4863 150.439 -29.0527 Z"/>
  </g>
  <g id="Ultralight-L" transform="matrix(1 0 0 1 458.783 1556)">
   <path d="M 162.354 32.3242 C 163.281 32.3242 163.916 31.6406 163.916 30.6152 L 163.916 15.4785 L 169.629 15.4785 C 180.225 15.4785 185.791 9.86328 185.791 -0.585938 L 185.791 -44.4336 C 185.791 -54.9316 180.225 -60.6445 169.629 -60.6445 L 114.893 -60.6445 L 114.893 -77.7344 C 114.893 -88.1836 109.229 -93.8965 98.6328 -93.8965 L 32.2266 -93.8965 C 21.6797 -93.8965 16.0645 -88.1836 16.0645 -77.7344 L 16.0645 -33.8867 C 16.0645 -23.3887 21.6797 -17.7734 32.2266 -17.7734 L 37.9883 -17.7734 L 37.9883 -2.63672 C 37.9883 -1.61133 38.623 -0.927734 39.502 -0.927734 C 40.0879 -0.927734 40.7715 -1.31836 41.2109 -1.70898 L 60.0098 -17.7734 L 87.0117 -17.7734 L 87.0117 -0.439453 C 87.0117 10.0586 92.6758 15.4785 103.223 15.4785 L 141.895 15.4785 L 160.645 31.5918 C 161.084 31.9336 161.768 32.3242 162.354 32.3242 Z M 40.332 -19.0918 C 40.332 -19.8242 39.8438 -20.2148 39.1113 -20.2148 L 32.959 -20.2148 C 23.291 -20.2148 18.5059 -25.0488 18.5059 -34.6191 L 18.5059 -77.0508 C 18.5059 -86.5723 23.1934 -91.4551 32.959 -91.4551 L 97.998 -91.4551 C 107.617 -91.4551 112.305 -86.5723 112.305 -77.0508 L 112.305 -60.6445 L 103.223 -60.6445 C 92.6758 -60.6445 87.0117 -54.9316 87.0117 -44.4336 L 87.0117 -20.2148 L 60.3027 -20.2148 C 59.1309 -20.2148 58.4961 -20.0195 57.3242 -18.9941 L 40.332 -4.15039 Z M 46.4844 -34.082 C 46.1426 -33.252 46.4844 -32.1289 47.7539 -32.1289 C 48.3887 -32.1289 48.7793 -32.4707 49.0723 -33.2031 L 54.7852 -48.0957 L 76.0742 -48.0957 L 81.7871 -33.2031 C 82.0312 -32.4707 82.4219 -32.1289 83.2031 -32.1289 C 84.4238 -32.1289 84.6191 -33.4473 84.375 -34.082 L 67.0898 -79.541 C 66.748 -80.3711 66.2598 -80.7617 65.5273 -80.7617 C 64.5508 -80.7617 64.0625 -80.3711 63.7695 -79.541 Z M 55.8594 -50.9766 L 65.4297 -76.123 L 75.0488 -50.9766 Z M 137.842 -38.916 C 137.158 -38.5742 136.279 -38.8672 135.938 -39.5996 L 133.203 -45.1172 C 132.91 -45.8984 133.057 -46.6309 133.936 -47.0215 C 134.668 -47.3633 135.498 -47.1191 135.791 -46.3867 L 138.477 -40.8203 C 138.818 -40.1855 138.77 -39.3555 137.842 -38.916 Z M 120.215 -31.3477 L 156.396 -31.3477 C 157.08 -31.3477 157.715 -30.7617 157.715 -30.0293 C 157.715 -29.2969 157.08 -28.6621 156.396 -28.6621 L 150.342 -28.6621 C 148.877 -22.2168 145.605 -16.1621 140.381 -10.9863 C 145.41 -7.12891 150.342 -4.93164 156.934 -3.4668 C 157.715 -3.27148 157.959 -2.58789 157.812 -1.95312 C 157.617 -0.732422 156.396 -0.439453 154.932 -0.830078 C 149.023 -2.34375 143.604 -4.88281 138.33 -9.17969 C 132.959 -4.93164 127.588 -2.39258 121.729 -0.830078 C 120.215 -0.488281 118.994 -0.732422 118.799 -1.95312 C 118.652 -2.58789 118.848 -3.27148 119.678 -3.4668 C 126.27 -4.93164 131.152 -7.12891 136.23 -10.9863 C 131.006 -16.1621 127.686 -22.2168 126.27 -28.6621 L 120.215 -28.6621 C 119.482 -28.6621 118.896 -29.2969 118.896 -30.0293 C 118.896 -30.7617 119.482 -31.3477 120.215 -31.3477 Z M 147.656 -28.6621 L 128.955 -28.6621 C 130.42 -22.8027 133.691 -17.1875 138.33 -12.6953 C 142.871 -17.1875 146.191 -22.8027 147.656 -28.6621 Z"/>
  </g>
  <g id="Black-M" transform="matrix(1 0 0 1 2836.35 1126)">
   <path d="M 148.145 30.0293 C 154.492 30.0293 158.691 25.4395 158.691 18.6035 L 158.691 9.96094 L 160.449 9.96094 C 173.145 9.96094 181.641 1.85547 181.641 -10.2539 L 181.641 -44.5801 C 181.641 -57.8613 172.314 -66.6992 158.398 -66.6992 L 114.941 -66.6992 L 114.941 -67.6758 C 114.941 -80.9082 105.615 -89.7949 91.748 -89.7949 L 35.6445 -89.7949 C 21.7285 -89.7949 12.4512 -80.9082 12.4512 -67.6758 L 12.4512 -33.3496 C 12.4512 -21.2402 20.8984 -13.1348 33.5938 -13.1348 L 36.6211 -13.1348 L 36.6211 -4.49219 C 36.6211 2.34375 40.8691 6.93359 47.2168 6.93359 C 50.9766 6.93359 56.4941 4.44336 60.8887 0.683594 L 76.9043 -13.1348 L 80.4199 -13.1348 L 80.4199 -10.2539 C 80.4199 1.85547 89.7461 9.96094 103.613 9.96094 L 118.408 9.96094 L 134.473 23.7793 C 138.867 27.5391 144.385 30.0293 148.145 30.0293 Z M 51.5137 -24.0234 C 51.5137 -27.7344 49.0723 -30.1758 45.3613 -30.1758 L 39.4531 -30.1758 C 33.8867 -30.1758 30.0781 -33.8867 30.0781 -39.3555 L 30.0781 -63.5742 C 30.0781 -69.043 33.8867 -72.7539 39.4531 -72.7539 L 87.8906 -72.7539 C 92.6758 -72.7539 96.0938 -70.1172 97.0215 -65.9668 C 86.8652 -63.623 80.4199 -55.6152 80.4199 -44.5801 L 80.4199 -30.1758 L 76.5137 -30.1758 C 72.9004 -30.1758 68.2617 -28.0762 65.0879 -24.9512 L 51.5137 -11.8164 Z M 44.9707 -41.6992 C 43.8965 -38.2812 45.0195 -32.666 51.0254 -32.666 C 54.4922 -32.666 56.543 -34.5703 57.373 -38.4766 L 65.9668 -38.4766 C 66.748 -34.668 68.8477 -32.666 72.3633 -32.666 C 78.3203 -32.666 79.4434 -38.2324 78.3691 -41.6992 L 72.6074 -60.2051 C 70.7031 -66.2109 67.1875 -69.043 61.5234 -69.043 C 56.0547 -69.043 52.6367 -66.3086 50.7324 -60.2051 Z M 59.3262 -47.8027 L 61.4746 -58.2031 L 61.9141 -58.2031 L 64.0137 -47.8027 Z M 130.811 -41.2598 C 128.369 -40.1855 125.635 -41.2598 124.365 -43.8477 L 122.705 -47.3633 C 121.533 -49.9023 122.461 -52.7832 124.951 -53.9551 C 127.344 -55.2734 130.225 -54.2969 131.543 -51.5137 L 133.252 -47.9004 C 134.473 -45.459 133.447 -42.5781 130.811 -41.2598 Z M 114.307 -38.7695 L 147.803 -38.7695 C 150.684 -38.7695 152.783 -36.7676 152.783 -34.082 C 152.783 -31.3965 150.586 -29.248 147.803 -29.248 L 144.678 -29.248 C 143.359 -24.9023 141.211 -20.8984 138.33 -17.4805 C 141.26 -15.7227 144.629 -14.3555 148.438 -13.4766 C 151.465 -12.9395 153.125 -10.4004 152.295 -7.42188 C 151.611 -4.78516 148.779 -3.41797 145.41 -4.15039 C 140.283 -5.32227 135.254 -7.66602 131.152 -10.6445 C 126.66 -7.51953 121.533 -5.27344 116.113 -4.10156 C 113.184 -3.32031 110.498 -4.78516 109.766 -7.4707 C 109.131 -10.2539 110.889 -12.9395 113.672 -13.4766 C 117.822 -14.5508 121.094 -15.918 123.779 -17.4805 C 120.947 -20.9961 118.799 -25.0488 117.432 -29.248 L 114.307 -29.248 C 111.475 -29.248 109.326 -31.3965 109.326 -34.082 C 109.326 -36.7676 111.426 -38.7695 114.307 -38.7695 Z M 134.521 -29.248 L 127.588 -29.248 C 128.516 -27.2949 129.688 -25.3906 131.152 -23.5352 C 132.568 -25.3906 133.691 -27.2949 134.521 -29.248 Z"/>
  </g>
  <g id="Heavy-M" transform="matrix(1 0 0 1 2541.62 1126)">
   <path d="M 145.557 28.5645 C 151.172 28.5645 154.883 24.5117 154.883 18.4082 L 154.883 9.0332 L 156.689 9.0332 C 169.287 9.0332 177.686 1.07422 177.686 -11.1816 L 177.686 -44.1895 C 177.686 -57.3242 168.652 -65.8691 155.127 -65.8691 L 111.572 -65.8691 L 111.572 -67.6758 C 111.572 -80.8105 102.637 -89.3066 89.0137 -89.3066 L 35.0098 -89.3066 C 21.4844 -89.3066 12.4512 -80.8105 12.4512 -67.6758 L 12.4512 -34.6191 C 12.4512 -22.3633 20.8496 -14.4531 33.4473 -14.4531 L 36.2305 -14.4531 L 36.2305 -5.07812 C 36.2305 1.02539 39.8926 5.12695 45.5566 5.12695 C 48.9746 5.12695 53.5645 2.88086 57.6172 -0.585938 L 73.7305 -14.4531 L 79.541 -14.4531 L 79.541 -11.1816 C 79.541 1.12305 88.4277 9.0332 102.1 9.0332 L 117.383 9.0332 L 133.496 22.9004 C 137.549 26.3672 142.09 28.5645 145.557 28.5645 Z M 49.3164 -23.5352 C 49.3164 -27.002 47.0703 -29.1992 43.7012 -29.1992 L 38.0371 -29.1992 C 31.8359 -29.1992 27.7832 -33.0566 27.7832 -39.2578 L 27.7832 -64.502 C 27.7832 -70.7031 31.8359 -74.6094 38.0371 -74.6094 L 85.9863 -74.6094 C 91.8945 -74.6094 95.8496 -71.0449 96.1914 -65.2832 C 85.9375 -63.1836 79.541 -55.3711 79.541 -44.1895 L 79.541 -29.1992 L 73.4863 -29.1992 C 70.1172 -29.1992 66.3086 -27.4414 63.3789 -24.6582 L 49.3164 -11.2793 Z M 43.7012 -40.7227 C 42.6758 -37.5 43.7988 -32.666 49.0723 -32.666 C 52.1484 -32.666 54.0039 -34.4238 54.7852 -37.9395 L 55.4199 -39.8926 L 65.5273 -39.8926 L 66.1621 -37.9395 C 66.9434 -34.4238 68.7988 -32.666 71.9238 -32.666 C 77.1484 -32.666 78.2715 -37.5488 77.2461 -40.7227 L 70.0195 -62.5 C 68.3594 -67.627 65.2344 -70.1172 60.3516 -70.1172 C 55.6152 -70.1172 52.5879 -67.7246 50.9277 -62.5 Z M 57.4219 -48.291 L 60.3027 -59.9609 L 60.6445 -59.9609 L 63.5254 -48.291 Z M 128.516 -41.4062 C 126.221 -40.4297 123.682 -41.4062 122.51 -43.7988 L 120.801 -47.4121 C 119.727 -49.707 120.605 -52.3926 122.9 -53.4668 C 125.146 -54.7363 127.783 -53.7598 129.004 -51.2207 L 130.762 -47.6074 C 131.885 -45.3125 130.957 -42.627 128.516 -41.4062 Z M 112.158 -38.6719 L 145.264 -38.6719 C 147.9 -38.6719 149.902 -36.8164 149.902 -34.3262 C 149.902 -31.7871 147.852 -29.834 145.264 -29.834 L 141.992 -29.834 C 140.674 -25.3418 138.428 -21.2402 135.449 -17.7246 C 138.477 -15.8691 141.943 -14.4531 145.898 -13.5254 C 148.73 -12.9883 150.195 -10.6934 149.463 -7.91016 C 148.779 -5.41992 146.191 -4.19922 143.018 -4.88281 C 137.939 -6.10352 132.959 -8.34961 128.809 -11.4258 C 124.316 -8.25195 119.238 -6.00586 113.818 -4.83398 C 111.084 -4.15039 108.594 -5.41992 107.861 -7.95898 C 107.324 -10.498 108.887 -12.9883 111.523 -13.5254 C 115.723 -14.5996 119.141 -16.0156 121.973 -17.7246 C 118.994 -21.3379 116.748 -25.4883 115.381 -29.834 L 112.158 -29.834 C 109.521 -29.834 107.52 -31.7871 107.52 -34.3262 C 107.52 -36.8164 109.473 -38.6719 112.158 -38.6719 Z M 132.617 -29.834 L 124.756 -29.834 C 125.732 -27.5879 127.1 -25.3906 128.809 -23.3398 C 130.42 -25.3906 131.689 -27.5879 132.617 -29.834 Z"/>
  </g>
  <g id="Bold-M" transform="matrix(1 0 0 1 2247.13 1126)">
   <path d="M 142.627 26.9531 C 147.51 26.9531 150.586 23.4375 150.586 18.1641 L 150.586 8.00781 L 152.49 8.00781 C 164.941 8.00781 173.242 0.244141 173.242 -12.207 L 173.242 -43.75 C 173.242 -56.7871 164.502 -64.9414 151.465 -64.9414 L 107.764 -64.9414 L 107.764 -67.627 C 107.764 -80.6641 99.3164 -88.8184 85.9863 -88.8184 L 34.2285 -88.8184 C 21.1426 -88.8184 12.4512 -80.6641 12.4512 -67.627 L 12.4512 -36.084 C 12.4512 -23.6328 20.752 -15.8691 33.2031 -15.8691 L 35.7422 -15.8691 L 35.7422 -5.66406 C 35.7422 -0.390625 38.8184 3.07617 43.7012 3.07617 C 46.7285 3.07617 50.293 1.17188 53.9551 -2.00195 L 70.166 -15.8691 L 78.5645 -15.8691 L 78.5645 -12.1582 C 78.5645 0.244141 87.0117 8.00781 100.342 8.00781 L 116.162 8.00781 L 132.373 21.875 C 136.035 25.0488 139.6 26.9531 142.627 26.9531 Z M 46.875 -22.998 C 46.875 -26.2207 44.7754 -28.0762 41.8945 -28.0762 L 36.377 -28.0762 C 29.541 -28.0762 25.1953 -32.1289 25.1953 -39.1602 L 25.1953 -65.4785 C 25.1953 -72.5098 29.4922 -76.6113 36.377 -76.6113 L 83.8379 -76.6113 C 90.7227 -76.6113 95.0195 -72.5098 95.0195 -65.4785 L 95.0195 -64.4531 C 84.8145 -62.5488 78.5645 -54.9805 78.5645 -43.75 L 78.5645 -28.0762 L 70.1172 -28.0762 C 66.9922 -28.0762 64.0625 -26.709 61.4746 -24.3164 L 46.875 -10.6934 Z M 42.2852 -39.6484 C 41.2598 -36.6699 42.4805 -32.666 46.875 -32.666 C 49.5117 -32.666 51.0742 -34.1309 51.8066 -37.1582 L 53.3203 -41.4062 L 64.9414 -41.4062 L 66.4551 -37.1582 C 67.1875 -34.1309 68.75 -32.666 71.3867 -32.666 C 75.8789 -32.666 76.9531 -36.7188 75.9766 -39.6484 L 67.0898 -65.0879 C 65.7227 -69.2383 63.0859 -71.2891 59.0332 -71.2891 C 55.0781 -71.2891 52.5391 -69.3359 51.1719 -65.0879 Z M 55.2246 -48.877 L 58.9844 -61.9629 L 59.2285 -61.9629 L 63.0371 -48.877 Z M 125.928 -41.6016 C 123.828 -40.7227 121.484 -41.6016 120.459 -43.75 L 118.701 -47.4121 C 117.725 -49.5605 118.555 -51.9531 120.605 -52.9785 C 122.705 -54.1016 125.098 -53.1738 126.221 -50.8789 L 127.979 -47.2168 C 129.004 -45.166 128.125 -42.7246 125.928 -41.6016 Z M 109.717 -38.5254 L 142.432 -38.5254 C 144.873 -38.5254 146.68 -36.8164 146.68 -34.5703 C 146.68 -32.2754 144.824 -30.5176 142.432 -30.5176 L 138.965 -30.5176 C 137.695 -25.8789 135.352 -21.582 132.227 -18.0176 C 135.4 -16.0156 138.965 -14.5508 143.066 -13.623 C 145.654 -13.0859 146.973 -10.9863 146.289 -8.44727 C 145.654 -6.15234 143.262 -5.07812 140.381 -5.71289 C 135.352 -6.88477 130.322 -9.17969 126.172 -12.3047 C 121.68 -9.08203 116.65 -6.83594 111.279 -5.66406 C 108.74 -5.0293 106.445 -6.20117 105.811 -8.49609 C 105.273 -10.8398 106.689 -13.0859 109.082 -13.623 C 113.379 -14.6484 116.943 -16.1621 119.922 -18.0176 C 116.797 -21.7285 114.502 -25.9766 113.135 -30.5176 L 109.717 -30.5176 C 107.324 -30.5176 105.469 -32.2754 105.469 -34.5703 C 105.469 -36.8164 107.275 -38.5254 109.717 -38.5254 Z M 130.518 -30.5176 L 121.631 -30.5176 C 122.705 -27.8809 124.219 -25.3906 126.172 -23.1445 C 128.027 -25.3906 129.492 -27.8809 130.518 -30.5176 Z"/>
  </g>
  <g id="Semibold-M" transform="matrix(1 0 0 1 1951.96 1126)">
   <path d="M 140.674 25.8301 C 144.971 25.8301 147.607 22.7539 147.607 18.0176 L 147.607 7.27539 L 149.561 7.27539 C 161.963 7.27539 170.166 -0.341797 170.166 -12.8906 L 170.166 -43.457 C 170.166 -56.3965 161.67 -64.3066 148.926 -64.3066 L 105.176 -64.3066 L 105.176 -67.627 C 105.176 -80.5664 97.0215 -88.4277 83.8867 -88.4277 L 33.7402 -88.4277 C 20.9473 -88.4277 12.4512 -80.5664 12.4512 -67.627 L 12.4512 -37.0605 C 12.4512 -24.4629 20.7031 -16.8457 33.1055 -16.8457 L 35.4492 -16.8457 L 35.4492 -6.10352 C 35.4492 -1.41602 38.0859 1.66016 42.3828 1.66016 C 45.2148 1.66016 48.0469 0 51.4648 -2.92969 L 67.6758 -16.8457 L 77.8809 -16.8457 L 77.8809 -12.8906 C 77.8809 -0.292969 85.9863 7.27539 99.1699 7.27539 L 115.332 7.27539 L 131.592 21.1914 C 135.01 24.1211 137.842 25.8301 140.674 25.8301 Z M 45.166 -22.6074 C 45.166 -25.6348 43.2617 -27.2949 40.625 -27.2949 L 35.2539 -27.2949 C 27.9297 -27.2949 23.4375 -31.4941 23.4375 -39.1113 L 23.4375 -66.1621 C 23.4375 -73.7793 27.9297 -78.0273 35.2539 -78.0273 L 82.373 -78.0273 C 89.6973 -78.0273 94.1895 -73.7793 94.1895 -66.1621 L 94.1895 -63.8672 C 83.9844 -62.1094 77.8809 -54.6875 77.8809 -43.457 L 77.8809 -27.2949 L 67.7734 -27.2949 C 64.7949 -27.2949 62.5 -26.2207 60.2051 -24.0723 L 45.166 -10.3027 Z M 41.3086 -38.916 C 40.332 -36.084 41.5527 -32.666 45.3613 -32.666 C 47.6562 -32.666 49.0723 -33.9355 49.7559 -36.5723 L 51.8066 -42.4805 L 64.5996 -42.4805 L 66.6504 -36.5723 C 67.334 -33.9355 68.75 -32.666 71.0449 -32.666 C 74.9512 -32.666 76.0254 -36.1816 75.0977 -38.916 L 65.0391 -66.8945 C 63.8672 -70.3613 61.5723 -72.0703 58.1543 -72.0703 C 54.7363 -72.0703 52.4902 -70.4102 51.3184 -66.8945 Z M 53.7109 -49.2676 L 58.1055 -63.3301 L 58.252 -63.3301 L 62.6465 -49.2676 Z M 124.121 -41.748 C 122.168 -40.8691 119.971 -41.6992 118.994 -43.7012 L 117.285 -47.4121 C 116.309 -49.4141 117.09 -51.6602 119.043 -52.5879 C 120.996 -53.6621 123.242 -52.7832 124.268 -50.6836 L 126.074 -47.0215 C 127.002 -45.0195 126.221 -42.7734 124.121 -41.748 Z M 108.057 -38.4277 L 140.43 -38.4277 C 142.725 -38.4277 144.434 -36.8652 144.434 -34.7168 C 144.434 -32.5684 142.725 -30.957 140.43 -30.957 L 136.914 -30.957 C 135.596 -26.2207 133.252 -21.875 129.98 -18.2129 C 133.252 -16.1133 136.914 -14.5996 141.113 -13.623 C 143.506 -13.1836 144.727 -11.2305 144.092 -8.83789 C 143.506 -6.64062 141.26 -5.66406 138.525 -6.29883 C 133.545 -7.4707 128.564 -9.7168 124.316 -12.8906 C 119.873 -9.66797 114.844 -7.42188 109.521 -6.25 C 107.129 -5.61523 104.932 -6.68945 104.346 -8.83789 C 103.857 -11.084 105.176 -13.1836 107.422 -13.623 C 111.768 -14.6973 115.43 -16.2109 118.555 -18.2129 C 115.283 -21.9727 112.939 -26.3672 111.621 -30.957 L 108.057 -30.957 C 105.811 -30.957 104.102 -32.5684 104.102 -34.7168 C 104.102 -36.8652 105.762 -38.4277 108.057 -38.4277 Z M 129.004 -30.957 L 119.482 -30.957 C 120.605 -28.0762 122.217 -25.3906 124.316 -22.998 C 126.416 -25.3906 127.979 -28.125 129.004 -30.957 Z"/>
  </g>
  <g id="Medium-M" transform="matrix(1 0 0 1 1656.39 1126)">
   <path d="M 139.16 24.9512 C 143.066 24.9512 145.361 22.168 145.361 17.9199 L 145.361 6.73828 L 147.363 6.73828 C 159.668 6.73828 167.871 -0.78125 167.871 -13.4277 L 167.871 -43.2617 C 167.871 -56.1035 159.521 -63.8184 146.973 -63.8184 L 103.223 -63.8184 L 103.223 -67.627 C 103.223 -80.5176 95.3125 -88.1836 82.3242 -88.1836 L 33.3496 -88.1836 C 20.8008 -88.1836 12.4512 -80.5176 12.4512 -67.627 L 12.4512 -37.793 C 12.4512 -25.1465 20.6543 -17.627 32.959 -17.627 L 35.2051 -17.627 L 35.2051 -6.44531 C 35.2051 -2.19727 37.5 0.585938 41.4062 0.585938 C 44.043 0.585938 46.3379 -0.927734 49.5605 -3.66211 L 65.8203 -17.627 L 77.3438 -17.627 L 77.3438 -13.4277 C 77.3438 -0.732422 85.2539 6.73828 98.2422 6.73828 L 114.746 6.73828 L 131.006 20.7031 C 134.229 23.4375 136.523 24.9512 139.16 24.9512 Z M 43.8965 -22.3145 C 43.8965 -25.2441 42.0898 -26.709 39.6973 -26.709 L 34.4238 -26.709 C 26.7578 -26.709 22.0703 -31.0059 22.0703 -39.0625 L 22.0703 -66.6992 C 22.0703 -74.707 26.709 -79.1016 34.4238 -79.1016 L 81.25 -79.1016 C 88.916 -79.1016 93.6035 -74.707 93.6035 -66.6992 L 93.6035 -63.4277 C 83.3984 -61.7676 77.3438 -54.4922 77.3438 -43.2617 L 77.3438 -26.709 L 66.0156 -26.709 C 63.1836 -26.709 61.3281 -25.8301 59.1797 -23.877 L 43.8965 -10.0098 Z M 40.5762 -38.3301 C 39.5996 -35.6445 40.8691 -32.666 44.2383 -32.666 C 46.2891 -32.666 47.5586 -33.8379 48.2422 -36.1328 L 50.7324 -43.2617 L 64.3066 -43.2617 L 66.748 -36.1328 C 67.4316 -33.8379 68.7012 -32.666 70.8008 -32.666 C 74.2676 -32.666 75.3418 -35.791 74.4629 -38.3301 L 63.5254 -68.2129 C 62.5 -71.1914 60.4492 -72.7051 57.4219 -72.7051 C 54.4922 -72.7051 52.4902 -71.2402 51.4648 -68.2129 Z M 52.5879 -49.5605 L 57.4219 -64.3555 L 57.5195 -64.3555 L 62.4023 -49.5605 Z M 122.754 -41.8457 C 120.947 -41.0156 118.799 -41.7969 117.92 -43.7012 L 116.162 -47.4121 C 115.283 -49.3164 116.016 -51.4648 117.871 -52.3438 C 119.727 -53.3203 121.826 -52.4902 122.803 -50.4883 L 124.609 -46.8262 C 125.488 -44.9219 124.756 -42.8223 122.754 -41.8457 Z M 106.787 -38.3789 L 138.965 -38.3789 C 141.113 -38.3789 142.725 -36.8652 142.725 -34.8633 C 142.725 -32.8125 141.113 -31.2988 138.965 -31.2988 L 135.352 -31.2988 C 134.033 -26.4648 131.641 -22.0703 128.271 -18.3594 C 131.592 -16.2109 135.352 -14.6973 139.648 -13.6719 C 141.895 -13.2324 143.018 -11.377 142.383 -9.13086 C 141.846 -6.98242 139.697 -6.15234 137.109 -6.73828 C 132.178 -7.91016 127.197 -10.1562 122.949 -13.3789 C 118.506 -10.1074 113.477 -7.86133 108.203 -6.68945 C 105.908 -6.10352 103.857 -7.08008 103.271 -9.13086 C 102.832 -11.2305 104.053 -13.2324 106.152 -13.6719 C 110.547 -14.7461 114.258 -16.3086 117.48 -18.3594 C 114.16 -22.168 111.768 -26.6113 110.4 -31.2988 L 106.787 -31.2988 C 104.639 -31.2988 103.027 -32.8125 103.027 -34.8633 C 103.027 -36.8652 104.639 -38.3789 106.787 -38.3789 Z M 127.93 -31.2988 L 117.871 -31.2988 C 118.994 -28.2227 120.703 -25.3906 122.949 -22.8516 C 125.146 -25.3906 126.855 -28.2715 127.93 -31.2988 Z"/>
  </g>
  <g id="Regular-M" transform="matrix(1 0 0 1 1361.2 1126)">
   <path d="M 137.158 23.877 C 140.527 23.877 142.432 21.4844 142.432 17.7734 L 142.432 6.05469 L 144.482 6.05469 C 156.738 6.05469 164.844 -1.31836 164.844 -14.1113 L 164.844 -42.9688 C 164.844 -55.7617 156.738 -63.1348 144.482 -63.1348 L 100.635 -63.1348 L 100.635 -67.627 C 100.635 -80.4199 93.0176 -87.793 80.2246 -87.793 L 32.8613 -87.793 C 20.6055 -87.793 12.4512 -80.4199 12.4512 -67.627 L 12.4512 -38.7695 C 12.4512 -25.9766 20.6055 -18.6035 32.8613 -18.6035 L 34.8633 -18.6035 L 34.8633 -6.88477 C 34.8633 -3.17383 36.7676 -0.78125 40.1367 -0.78125 C 42.5293 -0.78125 44.1406 -2.09961 47.0703 -4.63867 L 63.3789 -18.6035 L 76.6602 -18.6035 L 76.6602 -14.1113 C 76.6602 -1.31836 84.2773 6.05469 97.0703 6.05469 L 113.916 6.05469 L 130.225 20.0195 C 133.203 22.5586 134.766 23.877 137.158 23.877 Z M 42.1875 -21.9238 C 42.1875 -24.707 40.5273 -25.9277 38.4277 -25.9277 L 33.3008 -25.9277 C 25.1953 -25.9277 20.3125 -30.3711 20.3125 -39.0137 L 20.3125 -67.3828 C 20.3125 -75.9766 25.1465 -80.4688 33.3008 -80.4688 L 79.7852 -80.4688 C 87.8906 -80.4688 92.7734 -75.9766 92.7734 -67.3828 L 92.7734 -62.8418 C 82.5684 -61.3281 76.6602 -54.248 76.6602 -42.9688 L 76.6602 -25.9277 L 63.6719 -25.9277 C 61.0352 -25.9277 59.8145 -25.3418 57.9102 -23.6816 L 42.1875 -9.61914 Z M 39.5996 -37.5977 C 38.623 -35.1074 39.9414 -32.666 42.7246 -32.666 C 44.4824 -32.666 45.5566 -33.6426 46.2402 -35.5957 L 49.2676 -44.3359 L 63.916 -44.3359 L 66.9434 -35.5957 C 67.5781 -33.6426 68.7012 -32.666 70.459 -32.666 C 73.3887 -32.666 74.4629 -35.2051 73.584 -37.5977 L 61.5234 -69.9707 C 60.6934 -72.3145 58.9355 -73.5352 56.543 -73.5352 C 54.1504 -73.5352 52.4414 -72.3145 51.6113 -69.9707 Z M 51.123 -49.9512 L 56.543 -65.7227 L 56.5918 -65.7227 L 62.0117 -49.9512 Z M 120.996 -41.9434 C 119.287 -41.2109 117.334 -41.8945 116.504 -43.6523 L 114.746 -47.4121 C 113.916 -49.2188 114.6 -51.1719 116.309 -51.9531 C 118.066 -52.9297 119.971 -52.0996 120.85 -50.293 L 122.705 -46.582 C 123.535 -44.8242 122.803 -42.8711 120.996 -41.9434 Z M 105.176 -38.2812 L 137.012 -38.2812 C 139.014 -38.2812 140.527 -36.9141 140.527 -35.0586 C 140.527 -33.1055 139.014 -31.7383 137.012 -31.7383 L 133.301 -31.7383 C 131.982 -26.8066 129.492 -22.3145 126.074 -18.5547 C 129.492 -16.3086 133.301 -14.7461 137.695 -13.7207 C 139.795 -13.2812 140.82 -11.5723 140.234 -9.52148 C 139.697 -7.4707 137.695 -6.73828 135.303 -7.27539 C 130.42 -8.49609 125.439 -10.6934 121.191 -13.9648 C 116.699 -10.6445 111.719 -8.44727 106.445 -7.22656 C 104.297 -6.68945 102.393 -7.56836 101.855 -9.52148 C 101.416 -11.4258 102.539 -13.2812 104.492 -13.7207 C 108.936 -14.7949 112.793 -16.3574 116.113 -18.5547 C 112.646 -22.4121 110.205 -26.9531 108.887 -31.7383 L 105.176 -31.7383 C 103.125 -31.7383 101.66 -33.1055 101.66 -35.0586 C 101.66 -36.9141 103.125 -38.2812 105.176 -38.2812 Z M 126.465 -31.7383 L 115.723 -31.7383 C 116.895 -28.418 118.75 -25.3906 121.191 -22.7051 C 123.535 -25.4395 125.342 -28.4668 126.465 -31.7383 Z"/>
  </g>
  <g id="Light-M" transform="matrix(1 0 0 1 1067.71 1126)">
   <path d="M 133.643 21.7773 C 136.182 21.7773 137.646 19.9707 137.646 17.1387 L 137.646 5.46875 L 140.43 5.46875 C 151.416 5.46875 158.398 -1.02539 158.398 -12.3535 L 158.398 -42.7734 C 158.398 -54.1016 151.416 -60.5957 140.43 -60.5957 L 97.0215 -60.5957 L 97.0215 -67.7734 C 97.0215 -79.1016 90.4297 -85.5957 79.0527 -85.5957 L 30.4199 -85.5957 C 19.4336 -85.5957 12.4512 -79.1016 12.4512 -67.7734 L 12.4512 -37.3535 C 12.4512 -26.0254 19.4336 -19.5312 30.4199 -19.5312 L 33.2031 -19.5312 L 33.2031 -7.86133 C 33.2031 -5.0293 34.668 -3.22266 37.207 -3.22266 C 38.9648 -3.22266 40.2344 -4.19922 42.3828 -6.05469 L 58.1543 -19.5312 L 73.8281 -19.5312 L 73.8281 -12.3047 C 73.8281 -0.927734 80.4199 5.46875 91.7969 5.46875 L 112.695 5.46875 L 128.467 18.9453 C 130.615 20.8008 131.885 21.7773 133.643 21.7773 Z M 38.8184 -22.168 C 38.8184 -24.2676 37.5488 -25.1953 35.9375 -25.1953 L 30.9082 -25.1953 C 22.9492 -25.1953 18.457 -29.4434 18.457 -37.6953 L 18.457 -67.4316 C 18.457 -75.6836 22.9492 -79.9316 30.9082 -79.9316 L 78.6133 -79.9316 C 86.5234 -79.9316 91.0156 -75.6836 91.0156 -67.4316 L 91.0156 -60.5957 C 80.127 -60.3027 73.8281 -53.8574 73.8281 -42.7734 L 73.8281 -25.1953 L 58.4473 -25.1953 C 56.2988 -25.1953 55.3223 -24.7559 53.7109 -23.3398 L 38.8184 -10.0586 Z M 38.4766 -36.6211 C 37.7441 -34.668 38.7207 -32.7148 40.9668 -32.7148 C 42.334 -32.7148 43.1641 -33.4473 43.7012 -35.0098 L 47.168 -44.5801 L 62.4023 -44.5801 L 65.8203 -35.0098 C 66.3574 -33.4473 67.1875 -32.7148 68.6035 -32.7148 C 70.8984 -32.7148 71.7285 -34.7656 71.0449 -36.6211 L 58.5938 -69.873 C 57.9102 -71.6797 56.5918 -72.6074 54.7363 -72.6074 C 52.8809 -72.6074 51.5625 -71.6797 50.9277 -69.873 Z M 48.6816 -49.1699 L 54.7363 -66.1133 L 60.8398 -49.1699 Z M 116.602 -40.7715 C 115.283 -40.1367 113.672 -40.6738 113.037 -42.0898 L 111.182 -45.9961 C 110.498 -47.4121 111.035 -48.9746 112.402 -49.6094 C 113.818 -50.3418 115.332 -49.707 116.016 -48.291 L 117.92 -44.3848 C 118.604 -43.0176 118.066 -41.5039 116.602 -40.7715 Z M 101.416 -36.4258 L 132.129 -36.4258 C 133.691 -36.4258 134.863 -35.3027 134.863 -33.8379 C 134.863 -32.373 133.691 -31.25 132.129 -31.25 L 128.076 -31.25 C 126.855 -26.2695 124.365 -21.7285 120.703 -17.9199 C 124.268 -15.4297 128.076 -13.8184 132.715 -12.7441 C 134.375 -12.4023 135.107 -11.084 134.668 -9.47266 C 134.277 -7.76367 132.617 -7.22656 130.566 -7.66602 C 125.781 -8.88672 121.045 -11.0352 116.846 -14.3066 C 112.451 -10.9863 107.764 -8.83789 102.686 -7.66602 C 100.879 -7.17773 99.2188 -7.86133 98.8281 -9.47266 C 98.4863 -10.9863 99.3164 -12.4023 100.83 -12.7441 C 105.518 -13.8672 109.326 -15.4785 112.842 -17.9199 C 109.229 -21.8262 106.738 -26.3672 105.469 -31.25 L 101.416 -31.25 C 99.9023 -31.25 98.7305 -32.373 98.7305 -33.8379 C 98.7305 -35.3027 99.9023 -36.4258 101.416 -36.4258 Z M 122.705 -31.25 L 110.84 -31.25 C 111.963 -27.5391 114.062 -24.0723 116.846 -21.1914 C 119.58 -24.1211 121.582 -27.5879 122.705 -31.25 Z"/>
  </g>
  <g id="Thin-M" transform="matrix(1 0 0 1 775.27 1126)">
   <path d="M 129.004 18.9941 C 130.469 18.9941 131.348 17.9688 131.348 16.3574 L 131.348 4.63867 L 135.107 4.63867 C 144.434 4.63867 149.854 -0.585938 149.854 -10.0098 L 149.854 -42.5293 C 149.854 -51.9531 144.434 -57.2266 135.107 -57.2266 L 92.2852 -57.2266 L 92.2852 -68.0176 C 92.2852 -77.4414 87.0117 -82.666 77.4902 -82.666 L 27.1973 -82.666 C 17.8711 -82.666 12.4512 -77.4414 12.4512 -68.0176 L 12.4512 -35.4492 C 12.4512 -26.0254 17.8711 -20.8496 27.1973 -20.8496 L 30.957 -20.8496 L 30.957 -9.13086 C 30.957 -7.4707 31.8359 -6.44531 33.3008 -6.44531 C 34.2773 -6.44531 35.1074 -7.03125 36.1816 -7.95898 L 51.2207 -20.8496 L 70.0195 -20.8496 L 70.0195 -9.91211 C 70.0195 -0.439453 75.293 4.63867 84.8145 4.63867 L 111.084 4.63867 L 126.123 17.5293 C 127.197 18.457 128.027 18.9941 129.004 18.9941 Z M 34.3262 -22.5098 C 34.3262 -23.6816 33.5938 -24.2676 32.5684 -24.2676 L 27.7344 -24.2676 C 20.0684 -24.2676 16.0156 -28.1738 16.0156 -35.9375 L 16.0156 -67.5781 C 16.0156 -75.293 20.0195 -79.248 27.7344 -79.248 L 77.002 -79.248 C 84.668 -79.248 88.6719 -75.293 88.6719 -67.5781 L 88.6719 -57.2266 L 84.8145 -57.2266 C 75.293 -57.2266 70.0195 -51.9531 70.0195 -42.5293 L 70.0195 -24.2676 L 51.5137 -24.2676 C 50.0977 -24.2676 49.4141 -23.9746 48.1934 -22.9492 L 34.3262 -10.6934 Z M 37.0117 -35.2539 C 36.5723 -34.082 37.1582 -32.8125 38.623 -32.8125 C 39.4531 -32.8125 39.9902 -33.252 40.332 -34.1797 L 44.3848 -44.9219 L 60.3516 -44.9219 L 64.3555 -34.1797 C 64.6973 -33.252 65.2344 -32.8125 66.1621 -32.8125 C 67.627 -32.8125 68.0664 -34.2285 67.6758 -35.2539 L 54.6875 -69.6777 C 54.248 -70.8008 53.5156 -71.3867 52.3926 -71.3867 C 51.2207 -71.3867 50.4395 -70.8008 50 -69.6777 Z M 45.5078 -48.1445 L 52.3438 -66.6016 L 59.2285 -48.1445 Z M 110.791 -39.1602 C 109.961 -38.7695 108.887 -39.1113 108.447 -40.0391 L 106.494 -44.1895 C 106.055 -45.0684 106.348 -46.0449 107.275 -46.5332 C 108.203 -46.9727 109.18 -46.582 109.619 -45.6543 L 111.621 -41.5527 C 112.061 -40.6738 111.816 -39.6484 110.791 -39.1602 Z M 96.5332 -33.9355 L 125.635 -33.9355 C 126.611 -33.9355 127.344 -33.2031 127.344 -32.2754 C 127.344 -31.2988 126.611 -30.5664 125.635 -30.5664 L 121.191 -30.5664 C 120.02 -25.5859 117.529 -20.9961 113.623 -17.041 C 117.383 -14.2578 121.191 -12.5977 126.123 -11.4746 C 127.148 -11.2305 127.539 -10.4004 127.344 -9.47266 C 127.1 -8.20312 125.83 -7.86133 124.316 -8.20312 C 119.678 -9.375 115.283 -11.4258 111.133 -14.7461 C 106.885 -11.4258 102.49 -9.375 97.7539 -8.20312 C 96.2891 -7.86133 95.0684 -8.20312 94.7754 -9.47266 C 94.6289 -10.3516 95.0684 -11.2305 96.0449 -11.4746 C 100.977 -12.5977 104.785 -14.2578 108.545 -17.041 C 104.639 -20.9961 102.1 -25.6348 100.977 -30.5664 L 96.5332 -30.5664 C 95.5566 -30.5664 94.8242 -31.2988 94.8242 -32.2754 C 94.8242 -33.2031 95.5566 -33.9355 96.5332 -33.9355 Z M 117.773 -30.5664 L 104.346 -30.5664 C 105.518 -26.416 107.861 -22.4121 111.133 -19.1406 C 114.307 -22.4121 116.65 -26.416 117.773 -30.5664 Z"/>
  </g>
  <g id="Ultralight-M" transform="matrix(1 0 0 1 480.756 1126)">
   <path d="M 126.611 17.5781 C 127.49 17.5781 128.125 16.9434 128.125 15.918 L 128.125 4.19922 L 132.373 4.19922 C 140.869 4.19922 145.459 -0.341797 145.459 -8.78906 L 145.459 -42.4316 C 145.459 -50.8789 140.869 -55.5176 132.373 -55.5176 L 89.8438 -55.5176 L 89.8438 -68.1152 C 89.8438 -76.5625 85.2051 -81.2012 76.709 -81.2012 L 25.5371 -81.2012 C 17.041 -81.2012 12.4512 -76.5625 12.4512 -68.1152 L 12.4512 -34.4727 C 12.4512 -26.0254 17.041 -21.4844 25.5371 -21.4844 L 29.7852 -21.4844 L 29.7852 -9.76562 C 29.7852 -8.74023 30.4199 -8.10547 31.2988 -8.10547 C 31.8848 -8.10547 32.4707 -8.44727 33.0078 -8.93555 L 47.7051 -21.4844 L 68.0664 -21.4844 L 68.0664 -8.69141 C 68.0664 -0.195312 72.7051 4.19922 81.2012 4.19922 L 110.254 4.19922 L 124.902 16.7969 C 125.439 17.2363 126.025 17.5781 126.611 17.5781 Z M 32.0312 -22.7051 C 32.0312 -23.3887 31.543 -23.7305 30.9082 -23.7305 L 26.0742 -23.7305 C 18.5547 -23.7305 14.7949 -27.5391 14.7949 -35.0586 L 14.7949 -67.627 C 14.7949 -75.0488 18.5059 -78.9062 26.0742 -78.9062 L 76.2207 -78.9062 C 83.7402 -78.9062 87.4512 -75.0488 87.4512 -67.627 L 87.4512 -55.5176 L 81.2012 -55.5176 C 72.7051 -55.5176 68.0664 -50.8789 68.0664 -42.4316 L 68.0664 -23.7305 L 47.9492 -23.7305 C 46.9238 -23.7305 46.3379 -23.584 45.3613 -22.7051 L 32.0312 -11.0352 Z M 36.2793 -34.5703 C 35.9375 -33.7891 36.3281 -32.8125 37.4023 -32.8125 C 37.9883 -32.8125 38.3789 -33.1543 38.623 -33.7891 L 42.9199 -45.1172 L 59.2773 -45.1172 L 63.623 -33.7891 C 63.8672 -33.1543 64.209 -32.8125 64.8926 -32.8125 C 65.9668 -32.8125 66.2109 -33.9355 65.9668 -34.5703 L 52.6855 -69.5801 C 52.3926 -70.3613 51.9043 -70.752 51.1719 -70.752 C 50.3418 -70.752 49.8535 -70.3613 49.5605 -69.5801 Z M 43.8477 -47.6074 L 51.123 -66.8457 L 58.4473 -47.6074 Z M 107.812 -38.3789 C 107.227 -38.0859 106.445 -38.3301 106.104 -38.9648 L 104.053 -43.2129 C 103.76 -43.8965 103.955 -44.5312 104.688 -44.9219 C 105.322 -45.2148 106.055 -44.9707 106.348 -44.3359 L 108.398 -40.0879 C 108.74 -39.4531 108.594 -38.7207 107.812 -38.3789 Z M 93.9941 -32.666 L 122.314 -32.666 C 122.949 -32.666 123.535 -32.1289 123.535 -31.4453 C 123.535 -30.8105 122.949 -30.2246 122.314 -30.2246 L 117.676 -30.2246 C 116.553 -25.2441 114.014 -20.6055 110.01 -16.6016 C 113.867 -13.623 117.676 -11.9629 122.754 -10.8398 C 123.438 -10.6445 123.682 -10.0586 123.584 -9.47266 C 123.389 -8.39844 122.363 -8.1543 121.143 -8.49609 C 116.504 -9.66797 112.305 -11.6699 108.203 -14.9414 C 104.004 -11.6699 99.8047 -9.66797 95.2148 -8.49609 C 93.9453 -8.1543 92.9199 -8.39844 92.7246 -9.47266 C 92.627 -10.0586 92.8711 -10.6445 93.6035 -10.8398 C 98.6328 -11.9629 102.441 -13.623 106.299 -16.6016 C 102.344 -20.5566 99.7559 -25.2441 98.6328 -30.2246 L 93.9941 -30.2246 C 93.3594 -30.2246 92.8223 -30.8105 92.8223 -31.4453 C 92.8223 -32.1289 93.3594 -32.666 93.9941 -32.666 Z M 115.283 -30.2246 L 101.074 -30.2246 C 102.197 -25.7812 104.688 -21.5332 108.203 -18.1152 C 111.621 -21.5332 114.16 -25.7812 115.283 -30.2246 Z"/>
  </g>
  <g id="Black-S" transform="matrix(1 0 0 1 2857.47 696)">
   <path d="M 115.918 15.8203 C 120.85 15.8203 124.121 12.2559 124.121 6.93359 L 124.121 0.0976562 L 125.488 0.0976562 C 135.449 0.0976562 142.09 -6.25 142.09 -15.7715 L 142.09 -42.5293 C 142.09 -52.9297 134.814 -59.8633 123.926 -59.8633 L 89.8438 -59.8633 L 89.8438 -60.6445 C 89.8438 -71.0449 82.5684 -77.9785 71.6797 -77.9785 L 27.9297 -77.9785 C 17.041 -77.9785 9.76562 -71.0449 9.76562 -60.6445 L 9.76562 -33.8867 C 9.76562 -24.3652 16.4062 -18.0176 26.3672 -18.0176 L 28.7109 -18.0176 L 28.7109 -11.1816 C 28.7109 -5.85938 31.9824 -2.29492 36.9141 -2.29492 C 39.8438 -2.29492 44.0918 -4.24805 47.5098 -7.17773 L 60.1074 -18.0176 L 62.9883 -18.0176 L 62.9883 -15.7715 C 62.9883 -6.25 70.2637 0.0976562 81.1523 0.0976562 L 92.7246 0.0976562 L 105.322 10.9375 C 108.74 13.8672 112.988 15.8203 115.918 15.8203 Z M 40.2344 -26.416 C 40.2344 -29.2969 38.3301 -31.2012 35.4492 -31.2012 L 30.8594 -31.2012 C 26.416 -31.2012 23.4375 -34.1309 23.4375 -38.4766 L 23.4375 -57.5195 C 23.4375 -61.8652 26.416 -64.7949 30.8594 -64.7949 L 68.75 -64.7949 C 72.5586 -64.7949 75.293 -62.6465 75.9766 -59.2773 C 68.0176 -57.4219 62.9883 -51.1719 62.9883 -42.5293 L 62.9883 -31.2012 L 59.8145 -31.2012 C 56.9824 -31.2012 53.418 -29.5898 50.9277 -27.1484 L 40.2344 -16.8457 Z M 35.1562 -40.2344 C 34.3262 -37.5488 35.2051 -33.2031 39.8438 -33.2031 C 42.5781 -33.2031 44.1895 -34.7656 44.8242 -37.8906 L 51.709 -37.8906 C 52.3438 -34.7656 53.9551 -33.2031 56.6895 -33.2031 C 61.3281 -33.2031 62.207 -37.5488 61.377 -40.2344 L 56.7383 -54.9805 C 55.2734 -59.6191 52.5391 -61.8164 48.1445 -61.8164 C 43.8965 -61.8164 41.2598 -59.7168 39.7949 -54.9805 Z M 46.3867 -45.1172 L 48.0957 -53.3691 L 48.4375 -53.3691 L 50.1465 -45.1172 Z M 102.393 -39.9902 C 100.488 -39.1602 98.3398 -39.9902 97.3633 -41.9922 L 96.0449 -44.7754 C 95.1172 -46.7285 95.8496 -48.9746 97.8027 -49.9023 C 99.6582 -50.9277 101.904 -50.1465 102.93 -47.998 L 104.297 -45.166 C 105.225 -43.2617 104.443 -41.0156 102.393 -39.9902 Z M 89.4531 -38.0371 L 115.674 -38.0371 C 117.92 -38.0371 119.58 -36.4746 119.58 -34.375 C 119.58 -32.2754 117.871 -30.6152 115.674 -30.6152 L 113.232 -30.6152 C 112.207 -27.1973 110.498 -24.0234 108.252 -21.3379 C 110.547 -19.9707 113.184 -18.8965 116.162 -18.2129 C 118.555 -17.7734 119.824 -15.8203 119.189 -13.4766 C 118.652 -11.4258 116.455 -10.3516 113.818 -10.9375 C 109.814 -11.8652 105.859 -13.6719 102.637 -16.0156 C 99.1211 -13.5742 95.1172 -11.8164 90.8691 -10.8887 C 88.5742 -10.3027 86.4746 -11.4258 85.8887 -13.5254 C 85.4004 -15.6738 86.7676 -17.7734 88.9648 -18.2129 C 92.1875 -19.043 94.7754 -20.1172 96.875 -21.3379 C 94.6777 -24.1211 92.9688 -27.2949 91.8945 -30.6152 L 89.4531 -30.6152 C 87.2559 -30.6152 85.5469 -32.2754 85.5469 -34.375 C 85.5469 -36.4746 87.207 -38.0371 89.4531 -38.0371 Z M 105.322 -30.6152 L 99.8047 -30.6152 C 100.537 -29.0527 101.465 -27.5391 102.637 -26.0742 C 103.76 -27.5391 104.639 -29.0527 105.322 -30.6152 Z"/>
  </g>
  <g id="Heavy-S" transform="matrix(1 0 0 1 2561.91 696)">
   <path d="M 114.307 14.9414 C 118.799 14.9414 121.729 11.7188 121.729 6.83594 L 121.729 -0.537109 L 123.047 -0.537109 C 133.057 -0.537109 139.795 -6.83594 139.795 -16.6504 L 139.795 -42.2363 C 139.795 -52.7344 132.568 -59.5215 121.875 -59.5215 L 87.6465 -59.5215 L 87.6465 -60.5957 C 87.6465 -71.0938 80.5664 -77.8809 69.7266 -77.8809 L 27.6855 -77.8809 C 16.9434 -77.8809 9.76562 -71.0938 9.76562 -60.5957 L 9.76562 -35.0098 C 9.76562 -25.1953 16.4551 -18.8965 26.5137 -18.8965 L 28.5645 -18.8965 L 28.5645 -11.5234 C 28.5645 -6.64062 31.4941 -3.41797 35.9863 -3.41797 C 38.7207 -3.41797 42.2852 -5.17578 45.5566 -7.95898 L 58.252 -18.8965 L 62.6465 -18.8965 L 62.6465 -16.6504 C 62.6465 -6.83594 69.7266 -0.537109 80.5664 -0.537109 L 92.041 -0.537109 L 104.736 10.4004 C 108.008 13.1836 111.572 14.9414 114.307 14.9414 Z M 38.916 -26.0254 C 38.916 -28.8086 37.1094 -30.5176 34.4727 -30.5176 L 30.0293 -30.5176 C 25.0977 -30.5176 21.875 -33.5938 21.875 -38.5742 L 21.875 -58.2031 C 21.875 -63.1348 25.0977 -66.2598 30.0293 -66.2598 L 67.4316 -66.2598 C 72.0703 -66.2598 75.1953 -63.4766 75.5371 -58.9844 C 67.5781 -57.1777 62.6465 -51.0254 62.6465 -42.2363 L 62.6465 -30.5176 L 58.0566 -30.5176 C 55.3711 -30.5176 52.3926 -29.1504 50.0977 -26.9531 L 38.916 -16.4062 Z M 34.3262 -39.5996 C 33.4961 -37.0117 34.4238 -33.2031 38.5254 -33.2031 C 41.0156 -33.2031 42.4805 -34.6191 43.0664 -37.4023 L 43.6035 -38.916 L 51.5137 -38.916 L 52.002 -37.4023 C 52.6367 -34.6191 54.1016 -33.2031 56.543 -33.2031 C 60.6934 -33.2031 61.6211 -37.0605 60.791 -39.5996 L 55.0781 -56.7383 C 53.7598 -60.791 51.3184 -62.7441 47.4609 -62.7441 C 43.7012 -62.7441 41.3086 -60.8887 40.0391 -56.7383 Z M 45.166 -45.6055 L 47.4121 -54.6875 L 47.6562 -54.6875 L 49.9023 -45.6055 Z M 101.123 -40.2344 C 99.3164 -39.4531 97.2168 -40.2344 96.3379 -42.1387 L 95.0195 -44.9219 C 94.1406 -46.8262 94.8242 -48.9258 96.6797 -49.8047 C 98.4375 -50.7812 100.586 -50 101.562 -47.998 L 102.93 -45.166 C 103.809 -43.3594 103.027 -41.2109 101.123 -40.2344 Z M 88.2324 -38.1348 L 114.258 -38.1348 C 116.406 -38.1348 117.969 -36.6699 117.969 -34.668 C 117.969 -32.666 116.357 -31.1035 114.258 -31.1035 L 111.768 -31.1035 C 110.693 -27.5879 108.984 -24.3652 106.641 -21.6309 C 108.984 -20.166 111.719 -19.0918 114.795 -18.3594 C 117.041 -17.9199 118.213 -16.1133 117.627 -13.8672 C 117.09 -11.8652 115.039 -10.8887 112.5 -11.4746 C 108.545 -12.4023 104.59 -14.209 101.318 -16.6016 C 97.8027 -14.1113 93.7988 -12.3535 89.5508 -11.4258 C 87.3535 -10.8398 85.3516 -11.9141 84.8145 -13.916 C 84.3262 -15.9668 85.6445 -17.9199 87.6953 -18.3594 C 90.9668 -19.1895 93.6523 -20.3125 95.8496 -21.6309 C 93.5547 -24.4629 91.7969 -27.6855 90.7227 -31.1035 L 88.2324 -31.1035 C 86.1328 -31.1035 84.4727 -32.666 84.4727 -34.668 C 84.4727 -36.6699 86.084 -38.1348 88.2324 -38.1348 Z M 104.297 -31.1035 L 98.1934 -31.1035 C 98.9746 -29.3457 100 -27.6855 101.318 -26.0742 C 102.588 -27.6855 103.564 -29.3457 104.297 -31.1035 Z"/>
  </g>
  <g id="Bold-S" transform="matrix(1 0 0 1 2266.49 696)">
   <path d="M 112.549 13.9648 C 116.553 13.9648 118.994 11.084 118.994 6.78711 L 118.994 -1.2207 L 120.312 -1.2207 C 130.42 -1.2207 137.207 -7.51953 137.207 -17.6758 L 137.207 -41.9434 C 137.207 -52.4902 130.078 -59.082 119.531 -59.082 L 85.2051 -59.082 L 85.2051 -60.5957 C 85.2051 -71.1426 78.3691 -77.7344 67.5781 -77.7344 L 27.4414 -77.7344 C 16.8945 -77.7344 9.76562 -71.1426 9.76562 -60.5957 L 9.76562 -36.2793 C 9.76562 -26.1719 16.5527 -19.873 26.6602 -19.873 L 28.418 -19.873 L 28.418 -11.8652 C 28.418 -7.51953 30.9082 -4.6875 34.9121 -4.6875 C 37.4512 -4.6875 40.2832 -6.25 43.3594 -8.88672 L 56.1523 -19.873 L 62.207 -19.873 L 62.207 -17.6758 C 62.207 -7.51953 69.0918 -1.2207 79.8828 -1.2207 L 91.3086 -1.2207 L 104.102 9.76562 C 107.178 12.4023 110.01 13.9648 112.549 13.9648 Z M 37.5 -25.5371 C 37.5 -28.2227 35.791 -29.7363 33.3984 -29.7363 L 29.0527 -29.7363 C 23.6328 -29.7363 20.1172 -33.0078 20.1172 -38.623 L 20.1172 -58.9355 C 20.1172 -64.5996 23.584 -67.8711 29.0527 -67.8711 L 65.918 -67.8711 C 71.3867 -67.8711 74.8535 -64.5996 74.8535 -58.9355 L 74.8535 -58.5938 C 66.9922 -56.8359 62.207 -50.7812 62.207 -41.9434 L 62.207 -29.7363 L 56.1523 -29.7363 C 53.5645 -29.7363 51.2207 -28.7109 49.1699 -26.7578 L 37.5 -15.8691 Z M 33.3496 -38.916 C 32.5195 -36.4258 33.5449 -33.2031 37.1094 -33.2031 C 39.2578 -33.2031 40.5273 -34.4238 41.1133 -36.8652 L 42.2363 -40.0391 L 51.2695 -40.0391 L 52.3438 -36.8652 C 52.9785 -34.4238 54.248 -33.2031 56.3965 -33.2031 C 60.0098 -33.2031 60.9375 -36.4746 60.1074 -38.916 L 53.1738 -58.7402 C 52.0996 -62.1094 49.9512 -63.7695 46.6797 -63.7695 C 43.457 -63.7695 41.4062 -62.1582 40.2832 -58.7402 Z M 43.7988 -46.1426 L 46.6309 -56.1523 L 46.8262 -56.1523 L 49.6582 -46.1426 Z M 99.6582 -40.5273 C 97.9492 -39.7949 95.9961 -40.5273 95.166 -42.2852 L 93.8477 -45.1172 C 93.0176 -46.875 93.7012 -48.877 95.4102 -49.707 C 97.1191 -50.6348 99.0723 -49.8535 100 -47.998 L 101.367 -45.166 C 102.197 -43.457 101.465 -41.4551 99.6582 -40.5273 Z M 86.8164 -38.2812 L 112.695 -38.2812 C 114.746 -38.2812 116.211 -36.8652 116.211 -35.0098 C 116.211 -33.1055 114.697 -31.6895 112.695 -31.6895 L 110.107 -31.6895 C 109.033 -28.0273 107.227 -24.707 104.834 -21.9238 C 107.275 -20.4102 110.059 -19.2871 113.232 -18.5059 C 115.381 -18.1152 116.455 -16.4062 115.869 -14.2578 C 115.381 -12.4023 113.428 -11.5234 111.084 -12.0605 C 107.129 -12.9883 103.125 -14.7949 99.8535 -17.2363 C 96.2891 -14.6973 92.2852 -12.9395 88.0371 -12.0117 C 85.9863 -11.4746 84.1309 -12.4023 83.5938 -14.3066 C 83.1543 -16.2598 84.3262 -18.1152 86.2793 -18.5059 C 89.5996 -19.3848 92.4316 -20.5078 94.7266 -21.9238 C 92.334 -24.8047 90.4785 -28.1738 89.4531 -31.6895 L 86.8164 -31.6895 C 84.8145 -31.6895 83.3008 -33.1055 83.3008 -35.0098 C 83.3008 -36.8652 84.8145 -38.2812 86.8164 -38.2812 Z M 103.125 -31.6895 L 96.4355 -31.6895 C 97.2656 -29.6875 98.3887 -27.832 99.8535 -26.123 C 101.221 -27.832 102.344 -29.7363 103.125 -31.6895 Z"/>
  </g>
  <g id="Semibold-S" transform="matrix(1 0 0 1 1970.68 696)">
   <path d="M 111.328 13.2812 C 114.941 13.2812 117.139 10.6445 117.139 6.68945 L 117.139 -1.70898 L 118.457 -1.70898 C 128.564 -1.70898 135.4 -8.00781 135.4 -18.3594 L 135.4 -41.748 C 135.4 -52.3438 128.369 -58.8379 117.92 -58.8379 L 83.5449 -58.8379 L 83.5449 -60.5469 C 83.5449 -71.1914 76.8555 -77.6367 66.0645 -77.6367 L 27.2461 -77.6367 C 16.7969 -77.6367 9.76562 -71.1914 9.76562 -60.5469 L 9.76562 -37.1582 C 9.76562 -26.8555 16.6016 -20.5566 26.7578 -20.5566 L 28.3203 -20.5566 L 28.3203 -12.1094 C 28.3203 -8.1543 30.5176 -5.56641 34.1797 -5.56641 C 36.5723 -5.56641 38.8672 -6.98242 41.7969 -9.47266 L 54.7363 -20.5566 L 61.9629 -20.5566 L 61.9629 -18.3594 C 61.9629 -8.00781 68.6523 -1.70898 79.4434 -1.70898 L 90.7715 -1.70898 L 103.662 9.32617 C 106.592 11.8652 108.936 13.2812 111.328 13.2812 Z M 36.4746 -25.2441 C 36.4746 -27.832 34.8633 -29.248 32.666 -29.248 L 28.418 -29.248 C 22.6074 -29.248 18.8965 -32.6172 18.8965 -38.7207 L 18.8965 -59.4727 C 18.8965 -65.5762 22.6074 -68.9941 28.418 -68.9941 L 64.8926 -68.9941 C 70.7031 -68.9941 74.3652 -65.5762 74.3652 -59.4727 L 74.3652 -58.3008 C 66.6016 -56.543 61.9629 -50.5859 61.9629 -41.748 L 61.9629 -29.248 L 54.7852 -29.248 C 52.2949 -29.248 50.4395 -28.3691 48.5352 -26.5625 L 36.4746 -15.5273 Z M 32.7148 -38.4277 C 31.8848 -36.0352 32.959 -33.2031 36.084 -33.2031 C 38.0371 -33.2031 39.209 -34.2773 39.7949 -36.4746 L 41.2598 -40.8691 L 51.123 -40.8691 L 52.5879 -36.4746 C 53.1738 -34.2773 54.3457 -33.2031 56.2988 -33.2031 C 59.5215 -33.2031 60.498 -36.084 59.668 -38.4277 L 51.9043 -60.1074 C 50.9277 -63.0371 48.9746 -64.4531 46.1426 -64.4531 C 43.3105 -64.4531 41.4551 -63.0371 40.4785 -60.1074 Z M 42.8711 -46.4844 L 46.0938 -57.1289 L 46.2402 -57.1289 L 49.5117 -46.4844 Z M 98.6816 -40.7227 C 97.0215 -40.0391 95.166 -40.6738 94.3848 -42.3828 L 93.0176 -45.2148 C 92.2363 -46.9238 92.9199 -48.8281 94.5312 -49.6094 C 96.1914 -50.5371 98.0469 -49.7559 98.9258 -47.998 L 100.293 -45.166 C 101.123 -43.5059 100.391 -41.6016 98.6816 -40.7227 Z M 85.8398 -38.3789 L 111.621 -38.3789 C 113.574 -38.3789 114.99 -37.0605 114.99 -35.2539 C 114.99 -33.4473 113.525 -32.0801 111.621 -32.0801 L 108.936 -32.0801 C 107.91 -28.3203 106.055 -24.9512 103.564 -22.1191 C 106.055 -20.5566 108.936 -19.3848 112.158 -18.6523 C 114.209 -18.2617 115.234 -16.6016 114.648 -14.5508 C 114.16 -12.7441 112.305 -11.9141 110.059 -12.4512 C 106.152 -13.3789 102.148 -15.1855 98.8281 -17.627 C 95.2637 -15.0879 91.2598 -13.3301 87.0117 -12.4023 C 85.0586 -11.8652 83.252 -12.793 82.7148 -14.5996 C 82.3242 -16.4551 83.4473 -18.2617 85.3027 -18.6523 C 88.6719 -19.4824 91.5527 -20.6543 93.9453 -22.1191 C 91.4551 -25.0488 89.5996 -28.4668 88.5254 -32.0801 L 85.8398 -32.0801 C 83.9355 -32.0801 82.5195 -33.4473 82.5195 -35.2539 C 82.5195 -37.0605 83.9355 -38.3789 85.8398 -38.3789 Z M 102.295 -32.0801 L 95.2148 -32.0801 C 96.0449 -29.9316 97.2656 -27.9297 98.8281 -26.123 C 100.293 -27.9785 101.465 -29.9805 102.295 -32.0801 Z"/>
  </g>
  <g id="Medium-S" transform="matrix(1 0 0 1 1674.63 696)">
   <path d="M 110.4 12.7441 C 113.77 12.7441 115.723 10.3516 115.723 6.64062 L 115.723 -2.09961 L 116.992 -2.09961 C 127.148 -2.09961 134.082 -8.34961 134.082 -18.8477 L 134.082 -41.6016 C 134.082 -52.2461 127.051 -58.5938 116.748 -58.5938 L 82.2754 -58.5938 L 82.2754 -60.5469 C 82.2754 -71.1914 75.6836 -77.5879 64.9414 -77.5879 L 27.0996 -77.5879 C 16.748 -77.5879 9.76562 -71.1914 9.76562 -60.5469 L 9.76562 -37.8418 C 9.76562 -27.3438 16.6504 -21.0449 26.8066 -21.0449 L 28.2715 -21.0449 L 28.2715 -12.3047 C 28.2715 -8.59375 30.2246 -6.20117 33.5938 -6.20117 C 35.8887 -6.20117 37.8418 -7.51953 40.6738 -9.96094 L 53.6133 -21.0449 L 61.7188 -21.0449 L 61.7188 -18.8477 C 61.7188 -8.34961 68.3105 -2.09961 79.1016 -2.09961 L 90.3809 -2.09961 L 103.32 8.98438 C 106.152 11.4258 108.105 12.7441 110.4 12.7441 Z M 35.7422 -25 C 35.7422 -27.5391 34.1309 -28.8086 32.0801 -28.8086 L 27.9297 -28.8086 C 21.8262 -28.8086 18.0176 -32.2754 18.0176 -38.7695 L 18.0176 -59.8633 C 18.0176 -66.3086 21.8262 -69.8242 27.9297 -69.8242 L 64.1113 -69.8242 C 70.2148 -69.8242 74.0234 -66.3086 74.0234 -59.8633 L 74.0234 -58.1055 C 66.3086 -56.3477 61.7188 -50.4395 61.7188 -41.6016 L 61.7188 -28.8086 L 53.7598 -28.8086 C 51.3184 -28.8086 49.8535 -28.125 48.0469 -26.4648 L 35.7422 -15.2832 Z M 32.2266 -38.0859 C 31.3477 -35.7422 32.4707 -33.2031 35.3516 -33.2031 C 37.1094 -33.2031 38.1836 -34.1797 38.7695 -36.1816 L 40.5762 -41.4551 L 50.9766 -41.4551 L 52.7832 -36.1816 C 53.3691 -34.1797 54.4434 -33.2031 56.2012 -33.2031 C 59.1797 -33.2031 60.1562 -35.791 59.3262 -38.0859 L 50.9277 -61.1816 C 50.0488 -63.7207 48.291 -64.9902 45.7031 -64.9902 C 43.2129 -64.9902 41.4551 -63.7207 40.5762 -61.1816 Z M 42.1387 -46.7773 L 45.7031 -57.9102 L 45.8008 -57.9102 L 49.3652 -46.7773 Z M 97.9004 -40.8691 C 96.3379 -40.1855 94.5312 -40.8203 93.75 -42.4805 L 92.4316 -45.3125 C 91.6504 -46.9727 92.334 -48.8281 93.8477 -49.5605 C 95.459 -50.4395 97.2656 -49.707 98.0957 -47.998 L 99.5117 -45.166 C 100.293 -43.5547 99.6094 -41.6992 97.9004 -40.8691 Z M 85.1562 -38.4277 L 110.791 -38.4277 C 112.695 -38.4277 114.062 -37.1582 114.062 -35.4004 C 114.062 -33.6426 112.646 -32.373 110.791 -32.373 L 108.105 -32.373 C 107.031 -28.5645 105.176 -25.1465 102.588 -22.3145 C 105.176 -20.7031 108.057 -19.4824 111.377 -18.75 C 113.33 -18.3594 114.307 -16.748 113.77 -14.7949 C 113.281 -12.9883 111.475 -12.2559 109.277 -12.7441 C 105.371 -13.6719 101.367 -15.4785 98.0469 -17.9688 C 94.4824 -15.4297 90.4785 -13.623 86.2305 -12.6953 C 84.3262 -12.207 82.5684 -13.0859 82.0801 -14.7949 C 81.6895 -16.6016 82.8125 -18.3594 84.5703 -18.75 C 87.9395 -19.5801 90.918 -20.752 93.3594 -22.3145 C 90.8203 -25.2441 88.916 -28.7109 87.8418 -32.373 L 85.1562 -32.373 C 83.3008 -32.373 81.8848 -33.6426 81.8848 -35.4004 C 81.8848 -37.1582 83.252 -38.4277 85.1562 -38.4277 Z M 101.709 -32.373 L 94.2383 -32.373 C 95.166 -30.0781 96.4355 -28.0273 98.0469 -26.1719 C 99.6094 -28.0762 100.83 -30.127 101.709 -32.373 Z"/>
  </g>
  <g id="Regular-S" transform="matrix(1 0 0 1 1378.82 696)">
   <path d="M 109.18 12.0605 C 112.207 12.0605 113.916 9.91211 113.916 6.5918 L 113.916 -2.58789 L 115.137 -2.58789 C 125.342 -2.58789 132.275 -8.83789 132.275 -19.5312 L 132.275 -41.3574 C 132.275 -52.0996 125.342 -58.3496 115.137 -58.3496 L 80.6152 -58.3496 L 80.6152 -60.5469 C 80.6152 -71.2402 74.1699 -77.4902 63.4277 -77.4902 L 26.9043 -77.4902 C 16.6992 -77.4902 9.76562 -71.2402 9.76562 -60.5469 L 9.76562 -38.6719 C 9.76562 -27.9785 16.6992 -21.7285 26.9043 -21.7285 L 28.1738 -21.7285 L 28.1738 -12.5488 C 28.1738 -9.22852 29.834 -7.08008 32.9102 -7.08008 C 35.0586 -7.08008 36.4746 -8.25195 39.1602 -10.5957 L 52.1973 -21.7285 L 61.4746 -21.7285 L 61.4746 -19.5312 C 61.4746 -8.83789 67.9199 -2.58789 78.6133 -2.58789 L 89.8438 -2.58789 L 102.881 8.59375 C 105.615 10.8887 107.031 12.0605 109.18 12.0605 Z M 34.7168 -24.707 C 34.7168 -27.1973 33.2031 -28.3203 31.3477 -28.3203 L 27.2461 -28.3203 C 20.8008 -28.3203 16.7969 -31.8848 16.7969 -38.8184 L 16.7969 -60.3516 C 16.7969 -67.2852 20.8008 -70.8984 27.2461 -70.8984 L 63.0859 -70.8984 C 69.5801 -70.8984 73.5352 -67.2852 73.5352 -60.3516 L 73.5352 -57.8125 C 65.918 -56.1035 61.4746 -50.293 61.4746 -41.3574 L 61.4746 -28.3203 L 52.4414 -28.3203 C 50.0977 -28.3203 49.0723 -27.7832 47.4121 -26.3184 L 34.7168 -14.9414 Z M 31.543 -37.5977 C 30.7129 -35.3516 31.8848 -33.2031 34.3262 -33.2031 C 35.8887 -33.2031 36.8652 -34.0332 37.4512 -35.791 L 39.5996 -42.2363 L 50.8301 -42.2363 L 52.9785 -35.791 C 53.5645 -34.0332 54.541 -33.2031 56.1035 -33.2031 C 58.6914 -33.2031 59.668 -35.4492 58.8867 -37.5977 L 49.6582 -62.5488 C 48.877 -64.5996 47.3633 -65.6738 45.166 -65.6738 C 43.0664 -65.6738 41.5039 -64.5996 40.7715 -62.5488 Z M 41.2109 -47.168 L 45.166 -58.8867 L 45.2148 -58.8867 L 49.1699 -47.168 Z M 96.9238 -41.0645 C 95.4102 -40.4297 93.6523 -41.0156 92.9688 -42.5781 L 91.6504 -45.459 C 90.8691 -47.0215 91.5527 -48.7793 93.0176 -49.5117 C 94.5801 -50.3418 96.2402 -49.5605 97.0703 -47.998 L 98.4375 -45.166 C 99.1699 -43.6035 98.5352 -41.8945 96.9238 -41.0645 Z M 84.1797 -38.5254 L 109.717 -38.5254 C 111.523 -38.5254 112.842 -37.3047 112.842 -35.6445 C 112.842 -33.9844 111.523 -32.7148 109.717 -32.7148 L 106.934 -32.7148 C 105.908 -28.8574 104.004 -25.3906 101.367 -22.5098 C 103.955 -20.8496 106.934 -19.6289 110.303 -18.8477 C 112.207 -18.457 113.086 -16.9434 112.549 -15.0879 C 112.109 -13.3301 110.4 -12.6953 108.301 -13.1348 C 104.395 -14.0625 100.391 -15.8691 97.0215 -18.4082 C 93.5059 -15.8203 89.4531 -14.0137 85.2051 -13.0859 C 83.3984 -12.6465 81.7383 -13.4277 81.25 -15.0879 C 80.9082 -16.8457 81.9336 -18.457 83.5938 -18.8477 C 87.0117 -19.6777 90.0391 -20.8984 92.5781 -22.5098 C 89.9414 -25.4883 88.0371 -29.0039 86.9629 -32.7148 L 84.1797 -32.7148 C 82.4219 -32.7148 81.1035 -33.9844 81.1035 -35.6445 C 81.1035 -37.3047 82.4219 -38.5254 84.1797 -38.5254 Z M 100.879 -32.7148 L 93.0176 -32.7148 C 93.9453 -30.3223 95.3125 -28.125 97.0215 -26.1719 C 98.6816 -28.1738 100 -30.3711 100.879 -32.7148 Z"/>
  </g>
  <g id="Light-S" transform="matrix(1 0 0 1 1084.97 696)">
   <path d="M 106.055 10.2539 C 108.398 10.2539 109.668 8.59375 109.668 6.05469 L 109.668 -3.125 L 111.572 -3.125 C 120.654 -3.125 126.562 -8.54492 126.562 -17.9688 L 126.562 -41.2109 C 126.562 -50.6348 120.654 -56.1035 111.572 -56.1035 L 77.3926 -56.1035 L 77.3926 -60.6934 C 77.3926 -70.1172 71.875 -75.5371 62.4023 -75.5371 L 24.7559 -75.5371 C 15.6738 -75.5371 9.76562 -70.1172 9.76562 -60.6934 L 9.76562 -37.4512 C 9.76562 -27.9785 15.6738 -22.5586 24.7559 -22.5586 L 26.6602 -22.5586 L 26.6602 -13.3789 C 26.6602 -10.8887 27.9785 -9.22852 30.2734 -9.22852 C 31.8848 -9.22852 33.0078 -10.1074 35.0098 -11.8164 L 47.6074 -22.5586 L 58.9355 -22.5586 L 58.9355 -17.9688 C 58.9355 -8.49609 64.502 -3.125 73.9258 -3.125 L 88.7695 -3.125 L 101.318 7.61719 C 103.32 9.32617 104.443 10.2539 106.055 10.2539 Z M 31.7383 -24.9023 C 31.7383 -26.8066 30.5664 -27.6367 29.1016 -27.6367 L 25.1465 -27.6367 C 18.8477 -27.6367 15.1855 -31.0547 15.1855 -37.6465 L 15.1855 -60.4492 C 15.1855 -67.041 18.8477 -70.459 25.1465 -70.459 L 62.0605 -70.459 C 68.3105 -70.459 71.9727 -67.041 71.9727 -60.4492 L 71.9727 -56.0059 C 63.7207 -55.2734 58.9355 -50 58.9355 -41.2109 L 58.9355 -27.6367 L 47.8027 -27.6367 C 45.9473 -27.6367 45.0684 -27.2461 43.7012 -26.0254 L 31.7383 -15.332 Z M 30.5664 -36.6699 C 29.9316 -34.9609 30.8105 -33.252 32.7637 -33.252 C 33.9844 -33.252 34.7656 -33.8867 35.2051 -35.2539 L 37.7441 -42.4805 L 49.4629 -42.4805 L 52.002 -35.2539 C 52.4902 -33.8867 53.2227 -33.252 54.4434 -33.252 C 56.4941 -33.252 57.2266 -35.0586 56.6406 -36.6699 L 47.0215 -62.4023 C 46.4355 -64.0137 45.2637 -64.8438 43.6035 -64.8438 C 41.9434 -64.8438 40.7715 -64.0137 40.1855 -62.4023 Z M 39.0625 -46.4355 L 43.6035 -59.2773 L 48.1445 -46.4355 Z M 93.0176 -40.0391 C 91.8457 -39.502 90.4785 -39.9902 89.8926 -41.2109 L 88.4766 -44.1895 C 87.8906 -45.459 88.3789 -46.8262 89.5508 -47.4121 C 90.8203 -48.0469 92.1387 -47.5098 92.7734 -46.2402 L 94.2383 -43.2617 C 94.8242 -42.041 94.3359 -40.6738 93.0176 -40.0391 Z M 80.9082 -36.8652 L 105.42 -36.8652 C 106.787 -36.8652 107.812 -35.8887 107.812 -34.6191 C 107.812 -33.252 106.787 -32.2754 105.42 -32.2754 L 102.344 -32.2754 C 101.367 -28.418 99.4141 -24.9023 96.6309 -21.9238 C 99.3652 -20.0684 102.344 -18.7988 105.908 -18.0176 C 107.373 -17.6758 108.057 -16.5039 107.666 -15.0879 C 107.275 -13.623 105.859 -13.0859 104.102 -13.4766 C 100.342 -14.4043 96.5332 -16.1621 93.2129 -18.7012 C 89.7461 -16.1133 85.9375 -14.4043 81.8848 -13.4766 C 80.3711 -13.0859 78.9551 -13.6719 78.5645 -15.0879 C 78.3203 -16.4062 79.0527 -17.6758 80.4199 -18.0176 C 83.9844 -18.8477 87.0117 -20.1172 89.6484 -21.9238 C 86.9141 -24.9512 84.9609 -28.5156 83.9355 -32.2754 L 80.9082 -32.2754 C 79.4922 -32.2754 78.4668 -33.252 78.4668 -34.6191 C 78.4668 -35.8887 79.4922 -36.8652 80.9082 -36.8652 Z M 97.6074 -32.2754 L 88.7207 -32.2754 C 89.6484 -29.541 91.1621 -27.002 93.2129 -24.8047 C 95.2148 -27.002 96.7285 -29.5898 97.6074 -32.2754 Z"/>
  </g>
  <g id="Thin-S" transform="matrix(1 0 0 1 792.018 696)">
   <path d="M 101.953 7.8125 C 103.32 7.8125 104.102 6.83594 104.102 5.32227 L 104.102 -3.85742 L 106.885 -3.85742 C 114.502 -3.85742 119.043 -8.1543 119.043 -15.918 L 119.043 -41.0156 C 119.043 -48.7793 114.502 -53.125 106.885 -53.125 L 73.1934 -53.125 L 73.1934 -60.8398 C 73.1934 -68.6035 68.7988 -72.9492 61.0352 -72.9492 L 21.9238 -72.9492 C 14.3066 -72.9492 9.76562 -68.6035 9.76562 -60.8398 L 9.76562 -35.791 C 9.76562 -28.0273 14.3066 -23.6816 21.9238 -23.6816 L 24.707 -23.6816 L 24.707 -14.502 C 24.707 -13.0371 25.4883 -12.0605 26.8555 -12.0605 C 27.7832 -12.0605 28.5156 -12.5977 29.541 -13.4766 L 41.4551 -23.6816 L 55.5664 -23.6816 L 55.5664 -15.8203 C 55.5664 -8.10547 59.9609 -3.85742 67.7734 -3.85742 L 87.3535 -3.85742 L 99.2676 6.34766 C 100.293 7.27539 101.025 7.8125 101.953 7.8125 Z M 27.7344 -25.1953 C 27.7344 -26.3184 27.0508 -26.8066 26.1719 -26.8066 L 22.3145 -26.8066 C 16.2598 -26.8066 13.0371 -29.9316 13.0371 -36.1328 L 13.0371 -60.5469 C 13.0371 -66.6992 16.2598 -69.873 22.3145 -69.873 L 60.6445 -69.873 C 66.6992 -69.873 69.9219 -66.6992 69.9219 -60.5469 L 69.9219 -53.125 L 67.7734 -53.125 C 59.9609 -53.125 55.5664 -48.7793 55.5664 -41.0156 L 55.5664 -26.8066 L 41.6504 -26.8066 C 40.4297 -26.8066 39.8438 -26.5625 38.8184 -25.6836 L 27.7344 -15.918 Z M 29.2969 -35.498 C 28.9062 -34.4727 29.3945 -33.3008 30.7129 -33.3008 C 31.4941 -33.3008 31.9336 -33.7402 32.2266 -34.5703 L 35.3027 -42.7734 L 47.6562 -42.7734 L 50.7324 -34.5703 C 51.0254 -33.7402 51.5137 -33.3008 52.2949 -33.3008 C 53.6133 -33.3008 54.0527 -34.5703 53.6621 -35.498 L 43.6035 -62.2559 C 43.2129 -63.2812 42.5293 -63.7695 41.5039 -63.7695 C 40.4297 -63.7695 39.7461 -63.2812 39.3555 -62.2559 Z M 36.2793 -45.5566 L 41.4551 -59.7168 L 46.7285 -45.5566 Z M 87.8906 -38.623 C 87.1582 -38.2812 86.2305 -38.5742 85.8398 -39.4043 L 84.3262 -42.5781 C 83.9355 -43.4082 84.2285 -44.2383 85.0586 -44.6777 C 85.8398 -45.0684 86.7188 -44.7266 87.1094 -43.8965 L 88.6719 -40.7227 C 89.0625 -39.9414 88.8184 -39.0625 87.8906 -38.623 Z M 76.5625 -34.668 L 99.6582 -34.668 C 100.537 -34.668 101.221 -34.0332 101.221 -33.2031 C 101.221 -32.373 100.537 -31.7383 99.6582 -31.7383 L 96.2891 -31.7383 C 95.3613 -27.832 93.3594 -24.2188 90.3809 -21.1426 C 93.3105 -19.043 96.2891 -17.7246 100.049 -16.8945 C 100.977 -16.6504 101.367 -15.918 101.172 -15.0391 C 100.928 -13.9648 99.8535 -13.6719 98.584 -13.9648 C 94.9219 -14.8926 91.4062 -16.5039 88.1348 -19.0918 C 84.8145 -16.5039 81.2988 -14.8926 77.5391 -13.9648 C 76.3184 -13.623 75.293 -14.0137 75.0488 -15.0391 C 74.8535 -15.8691 75.293 -16.6504 76.1719 -16.8945 C 79.9805 -17.7246 82.959 -19.043 85.8398 -21.1426 C 82.8613 -24.2188 80.9082 -27.8809 79.9805 -31.7383 L 76.5625 -31.7383 C 75.6836 -31.7383 75.0488 -32.373 75.0488 -33.2031 C 75.0488 -34.0332 75.6836 -34.668 76.5625 -34.668 Z M 93.2129 -31.7383 L 83.0078 -31.7383 C 83.8867 -28.5156 85.6934 -25.4883 88.1348 -22.998 C 90.5762 -25.5371 92.334 -28.5645 93.2129 -31.7383 Z"/>
  </g>
  <g id="Ultralight-S" transform="matrix(1 0 0 1 497.26 696)">
   <path d="M 99.8535 6.54297 C 100.684 6.54297 101.221 5.9082 101.221 4.98047 L 101.221 -4.19922 L 104.443 -4.19922 C 111.328 -4.19922 115.137 -7.95898 115.137 -14.8438 L 115.137 -40.918 C 115.137 -47.8027 111.328 -51.5625 104.443 -51.5625 L 71.0449 -51.5625 L 71.0449 -60.9863 C 71.0449 -67.8711 67.2363 -71.6309 60.3027 -71.6309 L 20.459 -71.6309 C 13.5742 -71.6309 9.76562 -67.8711 9.76562 -60.9863 L 9.76562 -34.9121 C 9.76562 -28.0273 13.5742 -24.2676 20.459 -24.2676 L 23.6816 -24.2676 L 23.6816 -15.0879 C 23.6816 -14.1602 24.2188 -13.5254 25.0488 -13.5254 C 25.6348 -13.5254 26.1719 -13.8672 26.709 -14.3555 L 38.3301 -24.2676 L 53.8574 -24.2676 L 53.8574 -14.7461 C 53.8574 -7.86133 57.666 -4.19922 64.5996 -4.19922 L 86.5723 -4.19922 L 98.1934 5.71289 C 98.7305 6.20117 99.2676 6.54297 99.8535 6.54297 Z M 25.7324 -25.3418 C 25.7324 -26.0254 25.2441 -26.3672 24.6582 -26.3672 L 20.8984 -26.3672 C 14.9414 -26.3672 11.9141 -29.3945 11.9141 -35.3516 L 11.9141 -60.5957 C 11.9141 -66.5039 14.8926 -69.5312 20.8984 -69.5312 L 59.9121 -69.5312 C 65.8691 -69.5312 68.8477 -66.5039 68.8477 -60.5957 L 68.8477 -51.5625 L 64.5996 -51.5625 C 57.666 -51.5625 53.8574 -47.8027 53.8574 -40.918 L 53.8574 -26.3672 L 38.5254 -26.3672 C 37.5977 -26.3672 37.1582 -26.2207 36.3281 -25.4883 L 25.7324 -16.2109 Z M 28.6133 -34.9121 C 28.3691 -34.1797 28.6621 -33.3496 29.6387 -33.3496 C 30.1758 -33.3496 30.5176 -33.5938 30.7129 -34.2285 L 34.0332 -42.9199 L 46.7285 -42.9199 L 50.0488 -34.2285 C 50.293 -33.5938 50.5859 -33.3496 51.1719 -33.3496 C 52.1484 -33.3496 52.3926 -34.2773 52.1484 -34.9121 L 41.7969 -62.1582 C 41.5527 -62.8906 41.1133 -63.2324 40.4297 -63.2324 C 39.6973 -63.2324 39.209 -62.8906 38.9648 -62.1582 Z M 34.8145 -45.0684 L 40.3809 -59.9121 L 45.9961 -45.0684 Z M 85.2539 -37.8906 C 84.7168 -37.6465 84.0332 -37.8418 83.7891 -38.4277 L 82.1777 -41.748 C 81.9336 -42.334 82.0801 -42.9199 82.7148 -43.2617 C 83.3008 -43.5059 83.9355 -43.3105 84.2285 -42.7246 L 85.791 -39.4043 C 86.084 -38.8672 85.9375 -38.2324 85.2539 -37.8906 Z M 74.3164 -33.5449 L 96.7285 -33.5449 C 97.3145 -33.5449 97.8027 -33.0566 97.8027 -32.4707 C 97.8027 -31.8848 97.3145 -31.3965 96.7285 -31.3965 L 93.1641 -31.3965 C 92.2363 -27.4902 90.2832 -23.877 87.1582 -20.752 C 90.1855 -18.5059 93.1641 -17.1875 97.0703 -16.3086 C 97.7051 -16.1133 97.9492 -15.5762 97.8516 -15.0391 C 97.6562 -14.1602 96.7773 -13.9648 95.752 -14.209 C 92.1387 -15.1367 88.7695 -16.6992 85.5469 -19.2871 C 82.2754 -16.6992 78.9062 -15.1367 75.293 -14.209 C 74.2676 -13.9648 73.3887 -14.1602 73.2422 -15.0391 C 73.0957 -15.5762 73.3398 -16.1133 73.9746 -16.3086 C 77.9297 -17.1875 80.9082 -18.5059 83.8867 -20.752 C 80.8105 -23.877 78.8086 -27.5391 77.9297 -31.3965 L 74.3164 -31.3965 C 73.7305 -31.3965 73.2422 -31.8848 73.2422 -32.4707 C 73.2422 -33.0566 73.7305 -33.5449 74.3164 -33.5449 Z M 91.0156 -31.3965 L 80.0781 -31.3965 C 80.957 -27.9785 82.8613 -24.7559 85.5469 -22.0703 C 88.1836 -24.7559 90.1367 -28.0273 91.0156 -31.3965 Z"/>
  </g>
 </g>
</svg>
